<?xml version="1.0" encoding="utf-8"?>
<!-- Generator: Adobe Illustrator 16.0.0, SVG Export Plug-In . SVG Version: 6.00 Build 0)  -->
<!DOCTYPE svg PUBLIC "-//W3C//DTD SVG 1.1//EN" "http://www.w3.org/Graphics/SVG/1.1/DTD/svg11.dtd">
<svg version="1.1" id="Layer_1" xmlns="http://www.w3.org/2000/svg" xmlns:xlink="http://www.w3.org/1999/xlink" x="0px" y="0px"
	 width="36px" height="34.667px" viewBox="0 0 36 34.667" enable-background="new 0 0 36 34.667" xml:space="preserve">
<g>
	<g>
		<g>
			<path fill="none" stroke="#FFFFFF" stroke-width="4.4304" stroke-miterlimit="10" d="M14.954,30.855
				c-0.683,0-1.341-0.271-1.827-0.757l-8.953-8.953c-1.01-1.009-1.01-2.646,0-3.654c1.009-1.01,2.645-1.01,3.654,0l6.756,6.756
				L27.869,4.931c0.81-1.176,2.419-1.474,3.594-0.665c1.176,0.809,1.475,2.418,0.665,3.594L17.084,29.735
				c-0.436,0.633-1.129,1.039-1.895,1.109C15.111,30.851,15.032,30.855,14.954,30.855z"/>
		</g>
	</g>
	<g>
		
			<polyline fill="none" stroke="#51B848" stroke-width="5.1688" stroke-linecap="round" stroke-linejoin="round" stroke-miterlimit="10" points="
			6.001,19.318 14.954,28.271 29.998,6.396 		"/>
	</g>
</g>
</svg>
