<?xml version="1.0" encoding="utf-8"?>
<!-- Generator: Adobe Illustrator 16.0.0, SVG Export Plug-In . SVG Version: 6.00 Build 0)  -->
<!DOCTYPE svg PUBLIC "-//W3C//DTD SVG 1.1//EN" "http://www.w3.org/Graphics/SVG/1.1/DTD/svg11.dtd">
<svg version="1.1" id="Layer_1" xmlns="http://www.w3.org/2000/svg" xmlns:xlink="http://www.w3.org/1999/xlink" x="0px" y="0px"
	 width="44.667px" height="40.333px" viewBox="0 0 44.667 40.333" enable-background="new 0 0 44.667 40.333" xml:space="preserve">
<g>
	<g>
		<g>
			<path fill="none" stroke="#FFFFFF" stroke-width="4.4304" stroke-miterlimit="10" d="M17.698,36.42
				c-0.193,0-0.391-0.025-0.586-0.076c-4.258-1.123-7.823-3.836-10.039-7.641c-2.217-3.805-2.82-8.245-1.697-12.501
				c1.123-4.258,3.836-7.823,7.641-10.04s8.246-2.819,12.502-1.696c4.732,1.248,8.502,4.468,10.9,9.311
				c0.562,1.135,0.098,2.51-1.036,3.071c-1.138,0.562-2.511,0.098-3.071-1.036c-1.82-3.674-4.498-5.999-7.962-6.912
				c-3.073-0.811-6.278-0.376-9.024,1.224c-2.746,1.601-4.705,4.174-5.516,7.247c-0.811,3.074-0.376,6.279,1.225,9.025
				c1.6,2.746,4.174,4.705,7.247,5.516c1.224,0.322,1.954,1.576,1.632,2.801C19.642,35.739,18.714,36.42,17.698,36.42z"/>
		</g>
		<g>
			<g>
				<polygon fill="none" stroke="#FFFFFF" stroke-width="4.4304" stroke-miterlimit="10" points="27.149,14.946 36.812,24.024 
					39.844,11.119 				"/>
			</g>
		</g>
	</g>
	<g>
		<g>
			<path fill="none" stroke="#51B848" stroke-width="4.5845" stroke-linecap="round" stroke-linejoin="round" d="M17.696,34.127
				c-7.578-1.998-12.102-9.762-10.104-17.341C9.591,9.207,17.355,4.684,24.935,6.683c4.426,1.167,7.502,4.217,9.431,8.111"/>
			<g>
				<polygon fill="#51B848" points="27.149,14.946 36.812,24.024 39.844,11.118 				"/>
			</g>
		</g>
	</g>
</g>
</svg>
