<?xml version="1.0" encoding="utf-8"?>
<!-- Generator: Adobe Illustrator 16.0.0, SVG Export Plug-In . SVG Version: 6.00 Build 0)  -->
<!DOCTYPE svg PUBLIC "-//W3C//DTD SVG 1.1//EN" "http://www.w3.org/Graphics/SVG/1.1/DTD/svg11.dtd">
<svg version="1.1" id="Layer_1" xmlns="http://www.w3.org/2000/svg" xmlns:xlink="http://www.w3.org/1999/xlink" x="0px" y="0px"
	 width="36px" height="34.667px" viewBox="0 0 36 34.667" enable-background="new 0 0 36 34.667" xml:space="preserve">
<g>
	<g>
		<path fill="none" stroke="#FFFFFF" stroke-width="4.4304" stroke-miterlimit="10" d="M12.75,32.042
			c-1.427,0-2.585-1.156-2.585-2.584V5.208c0-1.428,1.158-2.584,2.585-2.584s2.585,1.156,2.585,2.584v24.25
			C15.335,30.886,14.177,32.042,12.75,32.042z"/>
	</g>
	<g>
		<path fill="none" stroke="#FFFFFF" stroke-width="4.4304" stroke-miterlimit="10" d="M23.25,32.042
			c-1.427,0-2.585-1.156-2.585-2.584V5.208c0-1.428,1.158-2.584,2.585-2.584s2.585,1.156,2.585,2.584v24.25
			C25.835,30.886,24.677,32.042,23.25,32.042z"/>
	</g>
	
		<line fill="none" stroke="#DFBB24" stroke-width="5.1688" stroke-linecap="round" stroke-linejoin="round" stroke-miterlimit="10" x1="12.75" y1="5.208" x2="12.75" y2="29.458"/>
	
		<line fill="none" stroke="#DFBB24" stroke-width="5.1688" stroke-linecap="round" stroke-linejoin="round" stroke-miterlimit="10" x1="23.25" y1="5.208" x2="23.25" y2="29.458"/>
</g>
</svg>
