<?xml version="1.0" encoding="utf-8"?>
<!-- Generator: Adobe Illustrator 19.2.0, SVG Export Plug-In . SVG Version: 6.00 Build 0)  -->
<svg version="1.1" id="Layer_1" xmlns="http://www.w3.org/2000/svg" xmlns:xlink="http://www.w3.org/1999/xlink" x="0px" y="0px"
	 viewBox="0 0 108.1 73.5" style="enable-background:new 0 0 108.1 73.5;" xml:space="preserve">
<style type="text/css">
	.st0{fill:#B4975A;}
	.st1{fill-rule:evenodd;clip-rule:evenodd;fill:#FFFFFF;}
	.st2{fill-rule:evenodd;clip-rule:evenodd;fill:#E31837;}
	.st3{fill:#231F20;}
</style>
<g>
	<ellipse class="st0" cx="54.1" cy="36.8" rx="54.1" ry="36.8"/>
	<g>
		<path d="M54.2,35.7c0.4,0,1.4-0.6,1.7-0.9c-1,0.6-1.2,0.4-1.4,0.6C54.1,35.5,53.8,35.7,54.2,35.7z"/>
		<path d="M37.1,41.3c-0.4,0.2-1.2,0.5-1.5,0.7c-0.3,0.2-0.8,0.4-1,0.4c-0.3,0.1-0.2,0.4,0.2,0.2c0.4-0.2,1.9-1.1,2.5-1.1
			C37.8,41.4,37.5,41.1,37.1,41.3z"/>
		<path d="M60,26.6c0.2,0.2,0.1,0.3,0.6,0.1c-0.5,0.5-0.6,0.7-1,1c0.6,0,1.3-0.3,1.7-0.8c-0.4,0.2-0.7,0.1-0.4,0
			c0.3-0.2,0.6-0.4,0.8-0.8c-0.6,0.4-1.3,0.6-0.9,0.2c0.4-0.4,0.4-0.5,0.4-0.8c-0.2,0-1,0.3-0.5-0.1c0.4-0.4,0.6-0.8,0.3-0.8
			c-0.3,0-0.6,1.1-0.9,1.1c-0.5,0,0.5-1.6,0.4-1.8c0-0.2-0.1-0.3-0.1-0.1c0,0.2-0.3,0.8-0.6,1.1c-0.3,0.4-0.2,0.7-0.2,0.9
			c0,0.2-0.2,0.7-0.4,0.8C59.5,26.4,59.5,27.1,60,26.6z"/>
		<path d="M43.6,47.3c0.7,0,1.3-0.3,1.5-0.5c0.2-0.2,0.9-0.5,1.4-0.7c0.5-0.1,1.7-1,2.7-1.4c1.1-0.4,1.2-0.9,1.5-1.3
			c-0.6,0.7-2.3,1.4-2.3,1.4s0.1-0.2,0.1-0.5c-0.4,0.5-1.2,0.9-1.7,1.2c-0.5,0.3-0.4-0.1-0.1-0.2c0.3-0.1,1.8-1.7,2-1.8
			c0.2-0.1-0.1-0.5-0.2-0.2c-0.1,0.3-1.2,1.1-2.2,1.6c-1.1,0.7-1.5,0.5-1.5,0.5s0.3-0.2,0.3-0.5c0,0.2-0.4,0.2-0.6,0.3
			c-0.5,0.1-2.1,0.9-2.5,1.1c0,0.1,0.4,0.2,0.4,0.2S42,46.8,41.7,47c0.5-0.1,1.3-0.4,1.3-0.4l0,0.3l1.1-0.6l-0.4,0l0.9-0.6
			c0,0,0,0-0.1,0.2c0.6,0,1-0.3,1.4-0.4c-0.3,0.6-0.6,0.6-1,0.7c-0.4,0.1,0.1,0.2,0.3,0.2C44.9,46.8,44.2,47,43.6,47.3z"/>
		<path d="M52.1,44.8c0,0,0.8-0.4,1.2-0.7c-0.5,0.1-1.2,0.5-1.2,0.5L52.1,44.8z"/>
		<path d="M59.4,21.2c0.7,0,1,0.5,1.2,0.7c0.3,0.2,0.2,0.1,0.2,0c-0.3-0.6-1.3-0.9-1.5-0.9C59.1,20.9,59.2,21.2,59.4,21.2z"/>
		<path d="M58.9,19.8c0.1,0,0.3,0.1,0.5,0.2c0.2,0.1,0.2,0,0.1-0.1c-0.1-0.1-0.6-0.2-0.7-0.3C58.7,19.6,58.8,19.7,58.9,19.8z"/>
		<path d="M58.6,34c-0.3,0.2-0.4,0.2-0.5,0.3C58,34.4,58.3,34.8,58.6,34z"/>
		<path d="M56.6,33.6c-0.3,0-1,0.3-0.5,0.3c0.4,0,1-0.5,1.4-0.5c0.4,0,1.7-0.7,1.9-0.6c-0.2,0.3,0,0.5-0.4,0.7
			c-0.4,0.2-0.2,0.6,0.8-0.3c-0.1,0.2,0.8,0.7,2.1-0.3c-0.8,0.2-0.6-0.1,0.1-0.7c-0.6,0.3-1.3,0.9-1.7,0.9c-0.3,0,0-0.6,0.8-1
			c-1.1,0.4-0.7-0.2,0.5-1c0.2-0.1-0.2-0.2-0.7-0.2c-0.5,0-0.1-0.4,0.3-0.6c0.5-0.2-0.4-0.3-1.2,0.1c0.3,0,0.5,0,0.5,0
			s-0.7,0.8,0.5,0.8c-0.3,0.3-1.1,1-0.9,1.2c-0.5,0.2-2.2,0.9-2.6,0.9C57,33.3,57,33.6,56.6,33.6z"/>
		<path d="M62.2,38.2c-0.1-0.1-0.1-0.1-0.5,0c-0.3,0.1-2.3,0.9-2.6,1.1c0-0.3,0.5-0.8,1-0.9c-0.3-0.1-0.4-0.2-0.1-0.3
			c0.3-0.1,1.5-0.7,1.6-0.9c0.1-0.2,0.1-0.1-0.2,0c-0.2,0.1-2.1,1.1-2.7,1.2c-0.7,0.1-0.5,0-0.2-0.2c0.3-0.2,0.8-0.4,0.8-0.5
			c0.1-0.1,0-0.2-0.2-0.1c-0.2,0.2-0.7,0.5-1.2,0.5c0.5-0.4,1.4-1.2,0.7-1c-0.3,0.3-1,1-1.5,1.1c0.1,0.2,0.4,0.1,0.4,0.1
			s-1.2,0.7-2.5,0.8c0.1,0.1,0.8,0.3,2.1-0.4c0.2-0.1,0.5,0.2,0.1,0.4c-0.4,0.2-0.7,0.4-1.1,0.5c0.2,0.3,1.3,0.3,1.9-0.1
			c-0.7,0.5-1.9,0.9-2.2,1.2c-0.2,0.2-0.2,0.5,0.4,0.2c0.6-0.3,2.3-1.3,2.7-1.4c-0.1,0.3-0.1,0.2-0.2,0.5
			C59.5,39.6,61.9,38.2,62.2,38.2z"/>
		<path d="M64,33.3c-0.3,0.2-0.3,0.2-0.7,0.3c0.4,0.1,0.3,0.2,0,0.4c0.3,0.2,0.6-0.1,0.8-0.3C64.4,33.4,64.3,33.1,64,33.3z"/>
		<path d="M64.3,30.8c0.2,0.1,1.6-1.2,1.6-1.3C65.8,29.3,64.8,30.5,64.3,30.8z"/>
		<path d="M62.4,32.5c-0.1,0.2,0,0.4,0.2,0.3c-0.4,0.4-0.5,0.6-1.1,0.6c0,0.3,0.5,0.4,0.9,0c-0.2,0.4-0.3,0.5-0.1,0.5
			c0.2,0,0.8-0.2,1.1-1c-0.6,0.3-0.9,0.2-0.5-0.1c0.4-0.3,0.9-0.3,1-0.8C63.6,32.3,62.9,32.7,62.4,32.5z"/>
		<path d="M62.4,35c0.2-0.1,0.8-0.4,1-0.9c-0.4,0.3-0.8,0.5-1,0.6C62.2,34.9,62.1,35.1,62.4,35z"/>
		<path d="M61.2,27.4c-0.9,0.3-2.4,1.7-1.3,1.2c-0.2,0.5-0.4,0.7,0.5,0.5c-0.5,0.5-0.8,0.9,0,0.9c0.7,0,1,0,1.5-0.5
			c-0.5,0.3-1.9,0.5-1.3,0c0.6-0.4,1.4-1,1.4-1s-1.8,0.6-1.2,0.2c0.6-0.4,0.7-0.4,0.7-0.4s-0.7-0.2-0.2-0.3c0.5-0.1,1.1-0.1,1.3-0.6
			C62.3,27.5,60.9,28.1,61.2,27.4z"/>
		<path d="M58.7,17.2c0.2,0,0.6,0.1,0.7,0.2c0.1,0.1,0.3-0.1,0.1-0.2c-0.2-0.1-0.4-0.2-0.6-0.4C58.1,16.4,58.2,17.1,58.7,17.2z"/>
		<path d="M36.6,43.3c-0.8,0.3-1.4,0.1-2.1,0.7C35,44,36.4,43.9,36.6,43.3z"/>
		<path d="M65.1,48.6c-1.1,1-2.2,1.9-2.9,2.2c-0.7,0.3-2.1,0.8-2.4,1.3c1-0.5,2-0.9,2.6-1C62.9,51,65,49.7,65.1,48.6z"/>
		<path d="M66.8,34.3c-0.2,0.3,1.4,0.3,2.2-1.3c-1.1,1-1,0.6-0.9,0.3c-0.9,1.6-0.9,0.7-0.6,0.2C67.2,33.7,67,34,66.8,34.3z"/>
		<path d="M68.1,30.9c0.3-0.4,0.6-0.9,0.5-1C68.7,29.8,68.4,30,68.1,30.9z"/>
		<path d="M66.4,45c-0.2-0.1-0.8,0.3-1.3,0.4c-0.5,0.1-1.4,0.6-2.1,1c-0.7,0.3,0,0.3,1-0.1C64.6,46,66.5,45.1,66.4,45z"/>
		<path d="M64.9,44.3c-0.3,0.1-0.5,0.3-0.5-0.1c0.2-0.2,0.3-0.3,0.3-0.3l-0.1-0.1c0,0-1,0.9-1.4,1.1c0.2,0,0.1,0.4,0.3,0.4
			c0.3,0,0.9-0.5,1.2-0.8c0.2,0.2,0.5,0.4,1-0.1c0.2,0.1,0.4-0.1,0.7-0.4c-0.1,0-0.7,0.2-0.8,0.4C65.4,44.6,65.1,44.8,64.9,44.3z"/>
		<path d="M70.5,31.1c0.3,0,0.3-0.9,0.7-0.7c0.1,0.1,0.7,0,0.8-0.5c0.1-0.1,0.4,0.4,0.3-0.5c-0.3,0.1-1.1,0.3-1.4,0.3
			c-0.3,0-0.5-0.2-0.9,0.1c-0.4-0.1-0.9-0.4-1.2,0.7c0.3-0.5,0.6-0.6,0.5-0.1c0,0.2,0.3,0.2,0.5,0.2C70.4,30.7,70.3,31.1,70.5,31.1z
			"/>
		<path d="M75.1,34.2c0.2-0.2,0.4-0.7,0.4-0.7S75,34,74.9,34.1C74.7,34.3,74.9,34.3,75.1,34.2z"/>
		<path d="M71.7,32.8c0.1-0.2,0.4-0.9,0.4-0.9s-1.2,1.6-1.2,0.9c-0.3,0.4-0.3,0.6-0.6,0.7c0.2,0.1,0.5,0,0.6-0.4
			C70.9,33.5,71.1,33.8,71.7,32.8z"/>
		<path d="M69.2,33.5c-0.1,0.1-0.1,0.4,0.1,0.2c0.2-0.2,0.4-0.7,0.4-0.7S69.4,33.4,69.2,33.5z"/>
		<path d="M51.3,49.2c-0.7,0.3-2.4,0.4-3.2,0.3c1.1-0.5,2.2-1.1,2.8-1.3c-0.9-0.1-2,0.3-3.2,0.8c-0.5,0.2-1.9,0.5-2.6,0.5
			c-0.7,0-1.7-0.2-2.1-0.2c-0.5,0-1.1,0.2-1.1,0.2c0.4,0.2,1.8,0.5,5.5,0.3C48.9,49.8,51.1,50,51.3,49.2z"/>
		<path d="M76.6,32.6c-0.6,0.4-0.7,0.5-1,0.7c0.3,0.1,0.4,0,0.5-0.1c0.1,0.3,0.2,0.2,0.3,0c0.1-0.2,0.4-0.1,0.6-0.3
			c0.2-0.2,0.4-0.2,0.2,0.1c0.2-0.4,0.6-0.8,0.4-0.7C77.6,32.5,76.1,33.7,76.6,32.6z"/>
		<path d="M75.3,26.7c0.1-0.6,0.1-0.7-0.2-1c-0.3-0.3,0.1,0.5-0.1,0.7C75.1,26.3,75.3,26.4,75.3,26.7z"/>
		<path d="M34.9,40.9c0.4-0.1,1.2-0.4,1.4-0.4c0.2,0,0.2-0.2,0-0.2c-0.2,0-1.3,0.3-1.5,0.3C34.6,40.8,34.6,41,34.9,40.9z"/>
		<path d="M34.9,44.6c0.4,0,2-0.4,2.7-0.6c0.2,0.2,0,0.5,0.5,0.4c0.2,0.1,0.4,0.4,0.4,0.4s-1,0.4-1.6,0.7c-0.2,0.1-1.2,0.4-1.6,0.2
			c0,0.2,0.1,0.2,0.1,0.2s1.8,0.2,2.2,0.1c0.3,0.2,0.7,0.2,0.9,0.1c0.3,0.2,0.5,0.2,0.8,0.2c0.3,0,2.4-0.5,2.6-0.6
			c0.3-0.1,1-0.4,1.2-0.6c0.2-0.2,1.7-1,1.8-1.2c-0.2-0.1-0.2,0-0.4,0.1c-0.3,0.2-1.9,1.4-2.6,1.3c0.2-0.4,0.2-1,1.4-1.7
			c-0.4,0.1-0.9,0.1-1.2,0c0.5-0.1,0.7-0.1,1-0.3c0.2,0,0.5-0.1,0.7,0c-0.1-0.2-0.9-0.3-1.1-0.1c-0.2,0.1-1.8,0.9-2.7,0.6
			c0.7-0.3,1.5-0.7,2.2-0.8c0.7-0.1,1.9-0.5,2.2-0.8c-0.1-0.1-0.2-0.1-0.2-0.1S43,42.4,42,42.5c-0.5,0-1.9,0.6-2.2,0.8
			c-0.5-0.1-1.7,0.2-2.4,0.5c-0.7,0.3-1.7,0.6-2.5,0.6c-0.7,0-1.2,0.5-1.2,0.5l0.3,0.1C34,45.1,34.5,44.7,34.9,44.6z M40.8,44.9
			c0.2-0.3,0.6-0.4,0.9-0.3c-0.1,0.1-0.3,0.2-0.5,0.4c-0.2,0.3-0.5,0.5-0.9,0.8c-0.4,0.2-0.7,0.2-0.8-0.1
			C40.2,45.8,40.6,45.2,40.8,44.9z M39,44.9c0.3,0,1-0.2,1-0.2l-0.3,0.3c0,0,0.2,0.1,0.6,0.1c-0.8,0.9-2.1,0.7-2.3,0.3
			c0.8,0.1,1.4-0.3,1.4-0.3S39,45,39,44.9z"/>
		<path d="M61.1,40.4c0.4,0.2,1.4-0.1,1.6-0.1c0.2,0.5,0.8,0,1.1-0.2c0.3-0.2,0.4,0.1,0.3,0.1c-0.1,0-0.2,0.2-0.4,0.3
			c-0.2,0.1,0.3,0.1,0.4-0.1c0.4,0,0.5-0.2,0.6-0.3c0.2,0.2,0.7,0.1,0.8,0c0.1-0.2,0.6-0.5,0.8-0.6c0.2-0.1,0-0.2-0.1-0.2
			c-0.1,0.1-0.3,0.2-0.6,0.4c-0.3,0.2-0.3,0-0.4-0.1c-0.2,0,0.1-0.3,0.3-0.4c0.2-0.1,0-0.3-0.2-0.1c-0.2,0.1-0.8,0.5-1.1,0.4
			c0.3-0.4,1.3-1.4,1.6-1.6c0.3-0.2,0.2-0.4-0.1-0.2c-0.3,0.2-1.6,1.5-2,1.9c-0.4,0.4-1,0.5-1.5,0.4c0.5-0.2,1.8-2,2.1-2.3
			c0.3-0.3,0-0.4-0.1-0.2c-0.1,0.1-1,1-1.3,1.3c-0.3,0.3-0.3,0-0.1-0.2c0.2-0.1,0.4-0.4,0.5-0.7c0.1-0.3-0.2-0.2-0.3,0
			c-1.2,1.6-2.7,2.2-3.9,2.7c0.9,0.2,1.9-0.6,2.2-0.8C61.7,39.8,61.5,40.1,61.1,40.4z"/>
		<path d="M59.8,46.3c0.2,0,0.5-0.1,0.7-0.5c0.1,0.1,0.7-0.1,1.2-0.9c0.3,0,1-0.9,1.4-1.4c-0.8,0.6-1.9,1.2-2.6,1.9
			C60.4,45.6,59.2,46.4,59.8,46.3z"/>
		<path d="M34.5,42.2c0.5-0.3,1.5-0.6,1.6-0.7c0.1-0.1,0.1-0.2,0-0.1c-0.1,0-1,0.4-0.5,0c0.3-0.1,0.4-0.2,0.4-0.2s0-0.1-0.3-0.1
			c-0.2,0-0.7,0.2-0.9,0.3c-0.2,0.1,0,0.2,0,0.2h0.3c0,0-0.6,0.4-0.8,0.4C34.1,42,34,42.4,34.5,42.2z"/>
		<path d="M66.4,32.8c-0.3,0.3-0.7,1-1.7,1.3c0,0.2,0.2,0.3,1-0.3c-0.2,0.4-0.3,0.6-0.5,0.7c0.1,0.2,0.4,0.1,1-0.5
			c-0.1,0.4,0,0.4-0.1,0.6c0.2,0,0.4-0.6,0.5-0.8c0.1-0.1,0.3-0.9,0-0.6c-0.3,0.3-0.4,0.6-0.7,0.7C66,33.8,66.8,32.5,66.4,32.8z"/>
		<path d="M72.3,33.5c0.3-0.3,0.6-0.8,0.6-0.8c0.1-0.2-0.8-0.5-1.4,0.8c0.2,0.1,0.4,0,0.5-0.2C72,33.7,72,33.8,72.3,33.5z"/>
		<path d="M37.4,52.4c0.1,0.2,0.5,0.3,0.8,0c0.3-0.3,1-0.6,2.2-0.6c1.3-0.1,2.3-0.5,2.8-0.7c0.5-0.3,0.2-0.7-0.5-0.2
			c-0.8,0.5-3.4,0.6-4.1,0.7c-0.7,0-0.9,0-0.8-0.3c0.6,0.1,2.5-0.3,3.2-0.6c0.7-0.3-0.3-0.3-1.2-0.1c-0.9,0.2-3.8,0.2-4.8,0.2
			c0.1,0.3,0.7,0.5,1,0.4c0.3-0.1,0.5,0.1,0.3,0.2c-0.2,0.1-0.9,0.1-1.3-0.1c-0.3-0.2-1.3-0.4-1.3-0.4s0.2,0,0.4-0.2
			c-0.5,0.1-1.1-0.3-1.1-0.2c0,0.2,0.4,0.4,0.4,0.4s0,0.1-0.3,0.2c0.8,0.6,2.3,0.6,2.8,0.6c0.4,0,0.6,0.2,0.5,0.3
			C38,52,37.7,52.2,37.4,52.4z"/>
		<path d="M46.1,17.5c-0.2,0-0.6,0.6-0.3,0.4c0.3-0.2,0.3-0.3,0.5-0.2C46.5,17.7,46.3,17.4,46.1,17.5z"/>
		<path d="M47.2,52.7c0.2-0.2,1-0.5,1.3-0.8c-0.2,0-1,0.2-1.3,0.4c-0.3,0.2-0.7,0.1-1.1-0.1c-0.3-0.2-1,0.1-1.2,0.3
			c-0.1,0.2-1.7,0.6-1.2,0.2c0.5-0.4,2.2-0.9,2.3-1c0.2-0.3,0.5-0.3,0.9-0.4c0.8-0.4,0.5-0.3-0.3-0.2c-0.8,0.2-2.7,1.1-3.3,1.3
			c-0.6,0.2-2.6,0.5-4.2,0.4c0.7,0.8,5.1,0.7,5.8,0.4c0.7-0.3,1-0.2,1.3,0c-0.3,0.1-1.7,0.5-2.1,0.6c-0.4,0.1-1.7,0.1-2.1,0.1
			c-0.5,0-0.4,0.3,0,0.3c0.9,0,1.2,0.2,2.1,0.2c1,0,2.2-0.5,2.6-0.4c1,0.1,1.4-0.5,1.4-0.5s-0.3,0.2-0.7,0.2c-0.5,0-0.4-0.3-0.2-0.4
			c0.9-0.2,0.9-0.6,0.9-0.6s-0.5,0.3-0.8,0.4C46.9,53.1,46.9,52.9,47.2,52.7z"/>
		<path d="M41.7,23.5c-0.7-1.1-0.1,0.6,0.7,2c0.8,1.4,0.8,0,1.7,2.1c0.9,2,2.6,1.9,3.1,2.2c0.5,0.3-0.6,0.3-0.1,0.5
			c0.5,0.2-0.3,0.4,0,0.6c0.4,0.2,0.5,0,0.9,0.4c0.8,0.7-1.4,0.1,0.1,0.8c0.8,0.4-0.6,0.2-0.1,0.4c0.5,0.1-0.4,0.4,0,0.5
			c0.5,0.1,1,0.1,0.7-0.3c-0.3-0.4,0.2,0.1,0.6,0.1c0.4,0,0.4-0.1,0.1-0.5c-0.3-0.4,0.3,0.1,1,0.1c0.7,0.1-0.3-0.2-0.8-0.5
			c-0.1,0-0.1-0.1-0.2-0.1c0.1,0,0.4,0.1,0.9-0.1c0.9-0.4-0.9,0.1-1.4-0.2c-0.5-0.3,0.2-0.2,1.1-0.3c1-0.1-0.7-0.2-1.6-0.4
			c-0.9-0.2,1.5-0.7,1.2-0.7c-0.3-0.1-0.7-0.4-1.1-0.7c-0.4-0.2-0.4-0.7,0-0.9c-0.3,0-0.4,0.1-1.6-0.6c-1.3-0.8-0.7-1.3-0.1-1.5
			c0.6-0.1,0.6-0.4-0.3-0.4c-0.9,0-1.9-0.9-2.5-1.4c-0.5-0.5-0.1-0.6-0.5-1.3c-0.4-0.7,0.3,0.1,0.8,0.7c0.5,0.6,1.5,0.8,0.5,0.1
			c-1-0.6-1.4-1.8-1.5-2.2c-0.1-0.4-0.9-0.7-1.3-1.4c-0.5-0.8,0,0.2,0.2,0.6c0.3,0.4,0.1,0.3,0.3,0.9c0.2,0.6,0.4,1,0.7,1.4
			c0.2,0.4,0.1,0.7,0.3,1.2c0.2,0.6,0.3,0.6,0.7,1.2c0.4,0.6,0.7,0.7,0.5,0.3c-0.2-0.3,0.1-0.4,0.5-0.1c0.4,0.3,0.4,0.6,0,0.8
			c-0.4,0.2-0.7,0-1.4-0.8c-0.7-0.8-0.8-1.8-1.3-2.7c-0.4-0.9-0.3-0.1,0.3,1.4C43.5,26.3,42.5,24.6,41.7,23.5z M47.8,29.6
			c0.3,0,0.1,0.1,0.1,0.2c0.1,0.1,0.3,0.2,0,0.2C47.6,30,47.5,29.6,47.8,29.6z M48.5,30.1c0.5,0,0.6,0.1,0.3,0.1
			c-0.3,0-0.4,0.4-0.9,0.3C47.2,30.5,48,30.1,48.5,30.1z M44.2,26.6c0.8,0.7,0.6,0.9,0.3,0.9c-0.3-0.1-0.7-0.8-0.8-0.9
			c-0.1-0.1-0.2-0.1-0.2-0.5C43.5,25.6,43.9,26.4,44.2,26.6z"/>
		<path d="M46,18.3c0.4-0.1,0.4-0.2,0.5-0.3c0.1-0.1,0-0.1-0.2,0C46.2,17.9,45.7,18.3,46,18.3z"/>
		<path d="M44.9,20.4c0.1-0.2,0.2,0.5,0.4,0.2c0.2-0.3-0.3-0.6-0.3-1c0-0.4-0.2,0.2-0.4-0.1c-0.2-0.3-0.4-0.9-0.5-1.1
			c-0.1-0.2-0.3-0.7-0.2,0c0.1,0.7,0.7,1.3,0.6,1.5C44.4,20.2,44.8,20.6,44.9,20.4z"/>
		<path d="M45.5,20c0,0.4,0.5,1.1,0.6,1.2c0.1,0.1-0.3-0.6-0.4-0.9C45.6,19.8,45.6,19.6,45.5,20z"/>
		<path d="M45.2,15.7c-0.1-0.1-0.1,0.1,0.1,0.2c0.2,0.1,0.4,0,0.3,0C45.5,15.8,45.2,15.8,45.2,15.7z"/>
		<path d="M44.7,16c-0.1-0.1-0.1,0.1,0.1,0.2c0.2,0.1,0.4,0,0.3,0C45.1,16.1,44.8,16.1,44.7,16z"/>
		<path d="M45.5,16.8c-0.3-0.1-0.3,0.1-0.1,0.2c0.3,0,0.3,0,0.3,0.1c-0.3,0.4,0.3,0.1,0.4-0.2C46.3,16.6,45.9,16.9,45.5,16.8z"/>
		<path d="M35.1,29.7c-0.2-0.1-1.1-0.2-1.9,0c-0.9,0.2-4,1.1-5,1.6c0.1,0.2,0.9,0.1,1.5-0.3c-0.2,0.3,0,0.3-0.6,0.7
			c0.5,0,0.9-0.2,1.1-0.7c0.7-0.2,2.3-0.8,3.4-0.9c1.1-0.1,1.4,0,1.4,0s-0.5,0.3-1,0.3s-1.2-0.1-1.9,0.3c-0.7,0.5-1.2,1.4-1.6,1.5
			c0.6-0.1,0.7-0.2,1-0.4c0.3-0.3,1.4-1.1,2.1-1.2c0.7-0.1,1.7,0,2.3-0.4c0.6-0.4,4-2.1,5.5-2.1c-0.1-0.2-0.3-0.2-0.8,0
			c-0.5,0.2-2.3,1-3.6,0.6c0.7-0.2,0.9-0.3,0.9-0.5c-0.9,0.1-2.6,0.9-3.1,0.9c-0.5,0-0.8-0.2-0.3-0.5c-0.4-0.1-1,0.3-1.3,0.5
			c0-0.4,0.2-0.7,0.2-0.7s-1,0.7-1.6,0.6c-0.6-0.1-1.3,0.1-1.4,0.4c0.7,0,2-0.1,2.3-0.4c-0.1,0.3-0.4,0.6-0.8,0.9
			c0.6-0.2,1.7-0.3,2.2-0.3c0.5,0,1.8-0.6,2.2-0.4c0.4,0.1,0.8,0.3,1,0.2C36.5,29.6,36.3,30,35.1,29.7z"/>
		<path d="M39.1,24.9c-0.5-0.1-1.6-0.2-2.8,0c0.7,0.2,1.9,0,2.3,0.1c0.4,0.1,1.5,0.3,1.5,0.3S39.7,25,39.1,24.9z"/>
		<path d="M64.7,28.3c0.2,0.1,1.3-0.9,1.3-1C65.9,27,65.2,27.9,64.7,28.3z"/>
		<path d="M31.5,38c1.3-0.5,3.4-1.8,4.2-2.4c0.9,0.2,3-0.1,3.9-0.5c-0.6,0.2-1.8-0.1-1.8-0.1l0.9-0.1c0,0-0.3-0.1-0.4-0.2
			c1,0.2,1.8-0.5,2.5-0.5c1.2,0,1,0.4,0.7,0.8c0.7-0.1,0.4-0.5,1.3-0.5c0.2,0,1.6-0.4,2.5-0.6c-0.7-0.3-2.7,0.2-3.1,0.4
			c-0.4,0.1-0.5,0-0.3-0.2c0.4-0.4,2-0.8,3.1-0.9c-1.2-0.5-3.6,0.6-3.6,0.6L41,33.6c0,0,1.5-0.8,2.1-1.1c-1.8,0.3-3.3,1.3-4.6,1.4
			c-1.3,0.1,1.1-0.8,1.9-1.1c-0.7,0-0.3-0.5-0.3-0.5s-2.1,0.9-2.9,1c0.9-1.2,3.3-1.4,4.2-1.4c0.9,0,2.5,0.4,2.9,0.5
			c0.4,0.1,1.5,0.3,2.1,0.1c-0.2-0.2-1.1-0.3-1.4-0.3c-0.4,0-2.1-1.1-2.9-0.8c0,0,0.3-0.5,1.3-0.5c1,0,1.2,0.6,2.2,0.4
			c-1.2-1.1-3.3-1.4-3.3-1.4s0-0.1,0.4-0.4c-0.4-0.1-2.3,0-2.3,0s0.6-0.3,0.8-0.6c-0.3,0.2-0.9,0.4-1.3,0.3c-0.4,0-1.6,0.1-2.3,0.6
			c-0.7,0.5-2,0.9-2.7,1.1c-0.7,0.1-1.4,0.6-2.1,0.7c-0.7,0.1-1.3,0.6-1.4,0.9c0.4,0,0.4-0.3,0.8-0.3c0.5,0,1.1-0.5,1.1-0.5
			s-0.1,0.5-0.3,0.6c-0.2,0.1-0.8,0.3-1.2,0.9c0.5,0.1,1.3-0.3,1.8-0.7c0.5-0.4,1.6-0.8,2.1-0.8c0.5,0,1-0.7,1.5-0.9
			c0.5-0.1,0.9-1,1.3-1c1,0,1.3-0.2,1.6-0.2c0.3,0-0.1,0.3,0.6,0.3c0.7,0,0.5,0.4,0.1,0.5c-0.4,0.1-2.3,0.9-2.4,1
			c-0.1,0.1-0.3,0.1-0.5,0.3c-0.2,0.2,2.6-1.1,3.5-1.1c0.9,0,0.9,0.7,0.3,0.6c-2.2-0.2-4.7,1.8-5.1,2.4c-0.3-0.1-1.1,0.2-1.5,0.5
			c-0.4,0.3-0.9,0.3-1.4,0.4c-0.5,0.1-0.6,0.3-0.6,0.4c0,0,0.4-0.2,0.7-0.2c0.9,0-0.9,1-0.9,1s0.3-0.1,0.6-0.1c0.7,0-0.8,0.7-1.7,1
			c0,0.1,0.3,0.1,0.3,0.1s-0.3,0.1-0.7,0.3c0.9-0.2,1.6-0.3,2.3-0.8C33.1,37,32.4,37.4,31.5,38z M35.7,34.1c0.5,0.1,0.4,0.3,0.2,0.3
			c-0.2,0-2.1,0.7-2.1,0.7S34.9,34.2,35.7,34.1z"/>
		<path d="M44.7,14.2c-0.4,0,0.2,0.6,0.4,0.8c0.2,0.2,0.4,0.3,0.3,0C45.2,14.6,45,14.2,44.7,14.2z"/>
		<path d="M30.6,41.9c-1.2,0.8-3.4,1.5-4.4,1.6c0.5-0.7,3.2-1.6,4.3-2.3c-0.5,0.3-1.6,0.6-2.9,0.9c-1.3,0.4-4,1.7-4,1.7
			s0.5,0,1.2-0.2c-0.2,0.3-0.8,0.6-0.8,0.9c0.5-0.4,1.7-0.7,3-0.7c-0.4,0.4-1,0.6-1.4,1C27,44.4,29.4,42.8,30.6,41.9z"/>
		<path d="M35.9,19.7c0.7,0.1,0.9-0.5,1.8-0.3c2.2,0.4,0.7-0.2-0.4-0.2C36.1,19.3,35.1,19.7,35.9,19.7z"/>
		<path d="M39.8,19.2c-0.7-0.1-0.9-0.6-1.7-0.5c-0.8,0-1.1,0.2,0,0.3c1.1,0,0.9,0.5,1.6,0.6C40.3,19.6,40.5,19.3,39.8,19.2z"/>
		<path d="M40.7,24.2c0.4-0.2,1-0.5-0.1-0.6c-0.4,0-0.5,0-0.8,0.1c-0.9-0.2-2.1-1.3-3.1-1.3c-1.1-0.1-1.9,0.6-0.3,0.2
			c0.4-0.1,2.2,0.7,2.7,1c0.5,0.3,0.2,0.4-0.2,0.2c-0.3-0.2-1.9-0.9-2.6-0.8c-0.7,0-1.7,0.3,0,0.4c1.7,0,1.8,0.7,2.8,1
			c1,0.3,0.8-0.2,0.7-0.4C39.8,23.7,40.3,24.4,40.7,24.2z"/>
		<path d="M35.5,27.3c0.4,0.4,1.1,0.2,1.5,0.1c0.4-0.1,1.5-0.4,2.5-0.5c-0.3-0.4-2.2,0.1-2.5,0.2C36.6,27.1,35.9,27.1,35.5,27.3z"/>
		<path d="M36,21c-0.5-0.1-1.1,0.2-0.4,0.2c0.7,0.1,1.8,0.5,2.5,0.5c0.7,0,0.7-0.3,0-0.2c-0.7,0.1-1.1-0.3-1.1-0.4
			c0-0.1,0.3,0.1,0.5-0.1c0.2-0.3-0.6-0.4-1.2-0.6c-0.6-0.2-0.9,0.1-0.5,0.3C36.2,20.8,36.5,21.1,36,21z"/>
		<path d="M58.5,18.8c0.1,0.1,0.6,0.3,1,0.5c0.4,0.3,0.3-0.1,0.2-0.4c0.4,0,0.8,0,0-0.2c-0.7-0.2-1.7-0.9-1.8-0.9
			c-0.1-0.1-0.3,0-0.2,0.1c0.1,0.1,0.4,0.3,0.8,0.6C58.4,18.4,58.3,18.6,58.5,18.8z"/>
		<path d="M55.5,30.6c-0.6,0.1-2.1,0.7-0.6,0.9c0.6,0.3,0.9,0.5,2-0.2c0,0.3-0.7,0.9-0.7,1.1c0,0.2,0.4-0.1,0.6-0.4
			c0,0.3,0.4,0.9,1.2-0.7c-0.6,0.8-1.3,0.4-0.2-0.5c-0.5,0.1-0.7-0.1-0.1-0.5c0.2-0.1,0.4-0.6,0.1-0.3c-0.3,0.2-1,1.1-2.2,1.1
			C55.2,31.2,54.6,31.3,55.5,30.6z"/>
		<path d="M58.3,31.9c-0.4,0.1-0.7,0.1-0.6,0.5c-0.4,0.1-1,0.2-1.2,0.2c-0.1,0.2,0,0.4,0.4,0.2c0,0.2,0.2,0.4,1,0
			c0.2,0,1.4-0.5,1.9-1.3c-0.5,0.2-1.2,0.7-1.6,0.7C57.9,32.3,58.1,32.1,58.3,31.9z"/>
		<path d="M35.2,38.5c0.7-0.3,0.9-0.1,0.5,0.2c-0.3,0.3-0.7,0.5-1.7,0.8c0.4,0.1,1.8-0.3,2.1-0.5c0.2-0.2,0.4-0.4,0.8-0.1
			c0.4,0.3,1.2,0.6,1.8,0.5c0.6-0.1,1,0.5,0.4,0.5c-0.6-0.1-0.8,0.1-2.3,0.9c1.9-0.3,4.3-0.2,5.2-0.2c-0.3,0.4-1.2,0.7-2.5,0.7
			c0.8,0.5,2.5,0.1,3.5-0.1c1-0.3,2.5-0.4,3.4-0.2c-0.7,0.5-4.2,0.4-4.7,0.7c-0.4,0.3-1.3,0.3-2.2,0.5c-0.9,0.1-2,0.9-2,0.9
			s2.6-0.8,3.1-0.8c0.5,0,1.3-0.1,1.8-0.1c0.5,0,1.3-0.6,1.7-0.6c0.3,0,1.6,0,2-0.1c0.4-0.1,1-0.4,1.2-0.5c0.2-0.1,1.7-0.2,1.9-0.1
			c0.2,0.1,0.6-0.2,0.3-0.2c-0.2,0-2,0-2,0l1.9-0.7l-0.2-0.2c0,0-1.9,0.6-2.1,0.5c-0.4-0.3-3.2,0-3.8,0.2c0.1-0.4,0.9-0.6,1.6-0.6
			c0.7,0,1.5-0.2,1.8-0.7c-0.1,0.1-1.2,0.1-1.2,0.1s0.1-0.1,0.2-0.4c-0.1,0.2-0.4,0.2-1,0.3c-0.5,0.1-1-0.2-1.3,0
			c-0.3,0.2-0.9,0.4-1.2,0.1c0.3-0.3,1.2-0.4,1.6-0.5c0.4-0.1,0.5-0.4,0.3-0.3c-1.5,0.6-2,0.3-1.8,0.1c0.6-0.1,1.1-0.5,1.1-0.5
			l-0.4-0.2c0,0,0.3-0.4,0.7-0.4c0.4,0,0.7-0.3,1.1-0.3c0.4,0,0.3,0.2,0.2,0.4c-0.1,0.1-0.4,0.2-0.7,0.2c-0.3,0-0.4,0.2,0,0.2
			c0.5,0,1.5-0.5,2-0.5c0.5,0,0.2,0.1-0.1,0.3c-0.4,0.2,0.5,0.1,0.8,0c0.3-0.1,0.3,0.2-0.1,0.3c-0.4,0.1,0,0.3,0.5,0.1
			c0.5-0.1-0.1,0.4-0.4,0.4c-0.3,0-0.2,0.3,0,0.2c0.2-0.1,0.6-0.2,0.9-0.3c0.3-0.1,0.3,0,0.3,0.2c0.1,0,0.6-0.2,1-0.3
			c0.3-0.1,1.2-0.3,1.7-0.6c0.5-0.3,0.1,0.2-0.2,0.4c-0.3,0.2-1.9,0.8-2.2,0.9c-0.3,0.1-0.1,0.3-0.5,0.4c-0.4,0.1,0.5,0.1,0.8-0.1
			c0.3-0.2,0.9-0.3,1.3-0.4c0.3-0.1,0.1,0.1-0.4,0.4c-0.5,0.2,0.2,0.1,0.4,0c0.2-0.1,0.1,0.1,0.3,0.1c0.3,0,1-0.2,1.2-0.4
			c0.2-0.1,0.2,0.2,0.3,0.2c0.1,0,0.7-0.2,1.6-0.7c1-0.5,0.4,0.2,0.2,0.3c-0.1,0.1-0.8,0.3-1.1,0.6c-0.3,0.3,0.3,0.3,0.6,0.2
			c0.3-0.1,1-0.5,1.7-0.6c1.5-0.1,2.5-0.9,2.8-1.1c0.3-0.2,0.2-0.3,0-0.3c-0.1,0.2-0.8,0.6-1.3,0.7c0.2-0.2,0.2-0.4,0.2-0.7
			c-0.4,0.5-1.1,0.5-1.5,0.6c0-0.3-0.6-0.2-1-0.1c-0.2-0.1-0.6,0.1-0.9,0.2c-0.3,0.2-0.3-0.1-0.2-0.3c-0.1,0-0.5,0.3-0.2-0.1
			c0.2-0.4,0.8-0.6,1.2-0.7c0.4-0.1,0.1-0.3,0-0.2c-0.2,0.1-0.6,0.1-1.2,0.6c-0.6,0.4-0.4-0.1-0.2-0.2c0.2-0.1,0-0.3-0.2-0.1
			c-0.2,0.2-0.5,0.1-0.3-0.1c0.2-0.2,0.6-0.2,0.9-0.3c0.3-0.1,0.1-0.3-0.1-0.2c-0.3,0.1-1,0.5-1.5,0.8c0-0.3-0.4-0.4-0.6-0.1
			c0.3,0.2-0.1,0.3-0.2,0.2c-0.1,0-0.5,0-0.8,0.3c-0.3,0.3-0.7-0.1-0.4-0.2c0.2-0.1,0.9-0.3,1.3-0.6c0.4-0.3-0.2-0.3-0.4-0.1
			C50,36.8,50,36.3,50,36.3s-0.3,0.3-0.7,0.3c-1,0,0-0.2,0.6-0.5c0.5-0.2-0.1-0.3-0.4-0.1c-0.2,0.2-1.3,0.7-1.6,0.7
			c-0.3,0-0.6-0.2-0.3-0.4c0.3-0.2,1.2-0.3,1.6-0.4c0.4-0.1-0.6-0.3-1-0.1c-0.3,0.1-1,0.4-1.2,0.4c-0.2,0-1,0.2-1,0.2s0.7-0.7,1-0.8
			c0.3,0,1-0.2,1.3-0.4c0.5-0.7-0.7-0.1-1.1,0.1c-0.4,0.2-1,0.7-1.2,0.5c-0.2-0.4,0.4-0.6,0.7-0.7c0.3-0.1,0.6-0.2,1.3-0.4
			c0.7-0.2,0.3-0.4,0.1-0.4c-0.2,0-1,0.3-1.4,0.6c-0.4,0.3-1,0.2-1.3,0.4c-0.3,0.2-1.3,0.5-1.6,0.7c-0.3,0.2-1.2,0.2-1.6,0.3
			c-0.4,0.1-0.3,0.2-0.7,0.5c-0.4,0.3-1.3,0.1-1.8,0.1c0,0.4,0.6,0.5,1.1,0.4c-0.2,0.5-0.8,0.3-1.3,0.4c-0.5,0.1-1.9,0.2-2.6,0.3
			c-0.7,0.2-2.8,0.6-3.3,1.3C33,39.8,34.5,38.8,35.2,38.5z M55.5,38.1c0.2,0,0.4,0.2,0,0.3c-0.4,0.1-0.5,0.1-0.9,0
			C55.2,38.4,55.3,38.1,55.5,38.1z M54.3,38.5c-0.2,0.2-0.5,0.3-0.5,0.1C53.8,38.4,54,38.5,54.3,38.5z M51.6,37.5
			c0.2,0.2-0.1,0.3-0.5,0.4C51.4,37.7,51.5,37.4,51.6,37.5z M38.9,38.1c0.2-0.1,1.4-0.4,2-0.6c1-0.3,0.4-0.6,0.9-0.8
			c0.4-0.1,1.7,0.2,2.8-0.4c0.2-0.1,0.7-0.1,0.5,0.2c-0.2,0.4-1.4,0.6-2.2,0.6c-0.7,0-1,0.6-1.4,0.6c-0.4,0-1.3,0.2-2.3,0.5
			C38.3,38.7,38.7,38.3,38.9,38.1z"/>
		<path d="M76.5,26.7c0,0,0.3-0.5,0-0.9c0-0.6,0-0.8-0.2-1c0,0.6,0.1,0.8-0.2,1.3C76.5,26.5,76.5,26.7,76.5,26.7z"/>
		<path d="M58,12.2c0.4,0.3,0.4,0.1,0-0.3c-0.4-0.4-0.6-0.9-1.3-1c-0.8-0.1-0.3,0.3,0.2,0.3C57.3,11.4,57.6,11.9,58,12.2z"/>
		<path d="M59.8,12.9c-0.4-0.2-1.2-0.3-0.8-0.1c0.4,0.2,1.3,0.9,2.3,2.3c0.5,0.5,0.9,0.3,1,0.4c0.1,0.1,0.4-0.2,0-0.5
			c-0.4-0.3-1-1-1.3-1.5c-0.3-0.5-0.3-1.3-0.9-1.9c-0.2-0.2-0.7-0.5-0.5-0.2c0.2,0.3,1.2,1.9,1.2,2.2C60.8,13.9,60.2,13.2,59.8,12.9
			z"/>
		<path d="M57.2,17.2c0.2,0.1,1.1,0.4,1.5,0.6c0.4,0.2,0.7,0,0.4-0.1c-0.6-0.1-1.6-0.6-1.8-0.7C56.9,16.8,57,17.1,57.2,17.2z"/>
		<path d="M66.2,28c0-0.2-1,1-1.6,1.3C64.8,29.5,66.2,28.2,66.2,28z"/>
		<path d="M75.9,29.8c0,0.5,0,0.4,0.4,0.2c0.1-0.1,0.6,0,0.4-0.3c-0.2-0.2-0.4-0.4-0.4-0.4s-0.6,0.5-1.2,0.6
			C75.7,30,75.7,29.9,75.9,29.8z"/>
		<path d="M40.9,36c0.5-0.1,1.6-0.4,1.9-0.4c0.3,0,1.7-0.4,2.1-0.5c0.4-0.1,1.1-0.4,0-0.2c-0.4,0.1-1.2,0.4-1.9,0.5
			c-0.7,0.1-1.9,0.2-2.3,0.3C40.4,36,40.4,36.2,40.9,36z"/>
		<path d="M44.6,34.2c-1,0.1-2.1,0.7-2.2,0.8c-0.1,0.1,1.9,0,2.4-0.3C43.9,34.8,44.3,34.4,44.6,34.2z"/>
		<path d="M58.2,44c0.1-0.3,0-0.4,0-0.4s-0.7,1-1.2,1.3c-0.4,0-0.9,0-1.7,0.5c-0.5,0-0.8-0.2-1.2-0.1c0.4-0.2,0.6-0.6,0.6-0.6
			s-0.5,0.1-1.1,0.5c-1.5,0.9-2,0.5-1.6,0.2c0.4-0.3,0.6-0.3,0.7-0.5c-0.2-0.1-0.5,0-0.5,0s-0.8,0.6-1.6,0.8
			c-0.8,0.2-0.7-0.1-0.2-0.4c0.4-0.3,1.2-0.7,1.2-0.7s-0.2-0.1-0.7,0.1c-0.5,0.2-1.2,0.5-1.8,1c-0.6,0.4-2.1,1.2-3.1,1.2
			c0.1,0.2,0.5,0.3,1.6-0.1c0.5-0.1,0.8-0.2,1.4-0.2c0.6,0,1.2,0,1.8-0.2c0.5-0.3,1.3,0,1.7-0.2c0.4-0.3,1.2-0.7,1.7-0.7
			c0.5,0,0.7,0.2,0.3,0.5c-0.4,0.2-1.4,1.1-3.1,1.1c-1.1,0-1.8,0-2.1-0.1c0.5,0.5,1.3,0.5,1.9,0.5c0.6,0,1.9,0,3.9-1.3
			c0.4-0.3,0.5-0.9,1.4-0.9c-0.4,0.4-1.9,1.9-4.1,2.6c-0.4,0.2-0.2,0.4,0.2,0.3c0.4-0.1,1.7-0.6,2.4-1.3c-0.2,0.3-0.6,0.7-0.6,0.7
			l1-0.5c0,0-0.9,1.1-1.6,1.4c0.5,0,1.4-0.8,1.7-1.2c0.1,0.2,0,0.5,0.3,0.2c0.3-0.3,1.4-1.2,1.4-1.4c0-0.2-0.4-0.2-0.3-0.5
			c0-0.3,0.5-0.3,0.7-0.3c0.4-0.4,0.9-1.4,2.2-1.8C59.2,43.5,58.5,43.9,58.2,44z"/>
		<path d="M47.8,34.2c0.2-0.4,0.9-0.5,1.3-0.5c-0.2-0.2-0.7-0.2-0.7-0.2s0.1,0,0.2-0.2c-0.3,0-0.9,0.2-0.9,0.2s-0.1,0.2,0.1,0.3
			C47.7,33.8,47.6,34.1,47.8,34.2z"/>
		<path d="M57.9,46.8c0.4-0.1,0.8-0.7,0.9-1c0.1-0.3-0.5,0.2-0.5-0.1c0-0.4-0.2-0.3-0.4-0.1c-0.2-0.1-0.3,0.4-0.3,0.5
			c0,0.1-0.8,0.8-0.8,0.8l0.3,0.1c0,0,0.2-0.4,0.6-0.7C57.9,46.1,57.5,46.9,57.9,46.8z"/>
		<path d="M30.1,34.4c-0.4,0.3-1.8,0.6-2,1.2c0.8-0.3,1.5-0.4,2.1-0.7c0.7-0.3,1.4-0.8,1.4-0.8S30.5,34.1,30.1,34.4z"/>
		<path d="M47.8,22.7c0.3,0.2,0.3,0-0.1-0.4c-0.4-0.3-0.4-0.7-0.4-0.9c-0.1-0.2-0.2-0.1-0.2,0.2S47.5,22.4,47.8,22.7z"/>
		<path d="M69,40.5c0.6-0.2,1.7-1,2.1-1.8c0.1-0.2,0-0.4-0.2-0.1c-0.2,0.3-0.7,1.1-1.6,1.5c-0.3,0.1-0.5,0-0.1-0.3
			c-0.2,0-0.9,0.3-0.9,0.3s0.2-0.1,0.2-0.2c-0.1,0-0.3-0.2-0.3-0.2s-0.8,0.7-1.4,0.7c-0.2,0,0-0.4,0.2-0.5c0.2-0.1,0.1-0.3,0-0.3
			c-0.1,0.1-0.3,0.2-0.6,0.3c-0.3,0.1-0.6,0.5-0.8,0.6c-0.2,0.1-0.8,0.7-0.5,0.6c0.3-0.1,1.7-0.4,2.1-0.4c-0.1,0.2,0.3,0.3,0,0.4
			c0.5-0.1,0.7-0.3,0.9-0.5c-0.4,0.1-0.8,0-0.4-0.2c0.3-0.1,0.9-0.3,1.1-0.4C68.6,40.4,68.5,40.8,69,40.5z"/>
		<path d="M73.3,34.3c0.2,0,0.4,0,0.6-0.3c0.1,0.3,0.4,0,0.5-0.4c0.1,0.1,0.4,0.2,0.6,0c-0.1,0-0.9,0-0.7-0.9
			c-0.4,0.2-0.7,0.5-0.6,0.1c0.2-0.4,0.1-0.6,0.1-0.6c0,0-0.5,1.1-1,1.6c0.3,0,0.5-0.2,0.6-0.4c0.1-0.2-0.1,0.4,0.5,0
			C73.9,33.7,73.8,33.9,73.3,34.3z"/>
		<path d="M68.8,46.6c0.7-0.2,1.6-0.7,2.2-0.9c0-0.1-0.1-0.2,0-0.2c0,0-2.6,1.2-3.5,1.2c-0.5,0-1.1,0-1.1,0s0.8,0.5,1.8,0.1
			c-0.2,0.4-0.1,0.9,0.8,0.9c0.9,0,2.2-0.3,2.5-0.6c-0.8,0-1.2,0.1-0.9-0.6C68.9,47.6,68.1,46.8,68.8,46.6z"/>
		<path d="M97.3,32.3c-1.9,0-3.2,3.8-3.2,4.3c0,0.5,0.2,0.7,0.4,0.7c1.3,0,0.9-2.8,1.6-3.8c0.3-0.3,0.8-0.8,1.2-0.8
			c0.5,0,1.3,1.6,0.9,4.1c-0.9-0.1-1.6,0.9-1.4,1.9c0.2-0.8,0.8-0.9,0.8-0.3c0,0.6-1,1.5-1.6,1.8c-0.3-0.1-0.4-0.2-0.4-0.2
			s0.7-0.4,0.8-0.7c0.1-0.2-0.1-0.2-0.1-0.2s-0.5,0.7-0.9,0.7c-0.4,0-0.8-0.3-0.8-0.7c0-0.4,0.2-0.9,0.8-0.9c0.4,0,0.5,0.2,0.7,0.3
			c0.2-0.5,0.2-1.2-0.8-1.2c-0.7,0-1.1,0.7-1.1,1.5c0,0.8,0.5,1.2,1,1.3c-0.4,0.3-1.2,0.5-1.7-0.8c0,0.6,0.1,1.3,0.3,1.7
			c-0.4-0.1-0.8-0.8-1-1.9c-0.1,0-0.2,0-0.2,0s0.1,1,0.6,1.8c-0.2,0-0.6,0.2-0.7-0.7c-0.2,0.4-0.5,0.2-0.8-1c0,0.7-0.4,1.1-0.5-0.7
			c0,0-0.1-0.1-0.1-0.1c0,0,0.2,1.2,0.1,1.4c0,0.2-0.5,0.2-0.6-0.8c0-0.4-0.2-0.6-0.2-0.2c0.1,1.1-0.6,0.7-0.4,0.2
			c-0.2-0.1-0.4,0.1-0.4,0.1c0.5,1.5,2.3,1.9,3.9,1.9c4,0,4.9-3.4,4.9-5.3C98.6,33.9,98.1,32.3,97.3,32.3z"/>
		<path d="M89.7,45.1c-0.1,0.2-0.5,0.4-0.8,0.6c0.2,0,0.8-0.4,0.9-0.6C90,45,89.8,45,89.7,45.1z"/>
		<path d="M86.7,48.6c0,0.2,0.2,0.1,0.5,0.1c0.3,0.1,0.6,0.3,0.5-0.3c0.3-0.4,0.5-0.1,0.7-0.5c0.3-0.4,0.5-0.6,0.6-0.2
			c0-0.3-0.2-0.6-0.2-0.6S87.9,48.4,86.7,48.6z"/>
		<path d="M90.5,45.7c0.3,0,0.7-0.4,0.8-0.7c-0.2,0.1-0.3,0.1-0.7,0c-0.2,0.5-0.5,0.8-0.9,1.3C90.1,46,90.2,45.9,90.5,45.7z"/>
		<path d="M88.7,45.6c0.2-0.3-0.1-0.4-0.2-0.1c-0.2,0.4-0.7,0.6-1.4,0.9C87.9,46.2,88.5,45.8,88.7,45.6z"/>
		<path d="M82.9,48.6c-0.3,0.5-0.8,0.5-0.9,0.7c0.3-0.1,0.7-0.2,0.8-0.4c0.2-0.2,0.9-0.7,1.2-0.7c0.4,0,0.7-0.3,0.7-0.5
			c-0.4,0.4-0.5,0.2-0.9,0.3C83.6,48.1,83,48.4,82.9,48.6z"/>
		<path d="M82.8,47c0.3-0.1,1.1-0.7,1.3-0.9c0,0.2,0.1,0.4-0.2,0.6c0.2,0.1,1.2,0,1.6-0.8c0.1-0.2,0-0.6-0.2-0.4
			c-0.2,0.2-0.1,0.4-0.7,0.5c0.2-0.3,0.3-0.5,0.3-0.6c0-0.1-0.1-0.2-0.4,0.1c-0.3,0.2-1.3,1-1.7,1.3C82.4,46.9,82.5,47.1,82.8,47z"
			/>
		<path d="M87,45.4c0.1-0.1-0.1-0.1-0.2,0c0,0.1-0.5,0.6-0.8,0.9C86.6,45.9,87,45.6,87,45.4z"/>
		<path d="M83.5,45.2c0.2-0.3,0-0.3-0.3,0c-0.2,0.2-1,1.1-1.5,1.2C82.2,46.3,83,45.9,83.5,45.2z"/>
		<path d="M30.6,56c0.5-0.1,1.2-0.3,1.7-0.3c-0.6-0.2-2.4,0.3-3,0.4c-0.6,0.2-1.6,0.1-2,0.4c0.4,0.2,0.8,0,1.5-0.2
			C29.5,56.2,30.1,56.1,30.6,56z"/>
		<path d="M86.1,45.8c0.2-0.2-0.1-0.1-0.2,0c-0.1,0.1-0.6,0.5-0.6,0.5S86,46.1,86.1,45.8z"/>
		<path d="M33,62.8c0,0,0,0.1-0.1,0.2c0.6,0.2,1.7,0.1,2.5-0.4C34.5,62.9,33,62.8,33,62.8z"/>
		<path d="M78.1,44.4c0,0.3-1,1.7-1,1.7s0.5-0.3,0.6-0.4c0.4-0.9,0.8-0.3,0.8,0c0.9-0.2,0.5,0.5,0.1,1.1c0.5-0.2,1.1-0.7,1.7-1.2
			c0,0.2,0.3,0.3,0.4,0.1c0.5-0.7,1-0.7,1-0.7c0,0-0.1,0.3-0.5,0.6c-0.3,0.3-0.1,0.6,0.1,0.5c0.9-0.5,1.5-1.6,1.4-1.6
			c-0.1,0.1-0.3,0.1-0.4,0c-0.1-0.1-0.2,0-0.4-0.1c0.1-0.2,0.2-0.2,0.2-0.5c-0.3,0.4-2,1.7-1.8,1.2c0.1-0.5-0.5-0.2-0.5-0.4
			c0-0.2,0-0.2-0.4-0.1c0.2-0.3,0.3-0.7,0.3-0.7s-0.4,0.4-0.7,0.6c-0.2,0.2-0.6-0.2-0.9-0.2c0.2-0.6,0.2-0.8-0.2-0.8
			c-0.4,0-1.5,1.1-1.6,1.5C77.6,44.2,78.1,44.1,78.1,44.4z"/>
		<path d="M36.3,61.6c0.8,0,2.3-0.2,2.6-0.4c0.3-0.2,1,0,1.4-0.2c1.1-0.1,1.2-0.3,1.1-0.8c0.7-0.1,1-0.5,1.3-1
			c-0.7,0.2-2.4,1.1-2.8,1.5c-0.3,0.2-1.3,0.4-1.7,0.2c0.8-0.3,1.5-0.6,1.5-1.1c-0.5,0.4-2.2,1.1-2.9,1.1c-0.6,0-1.1,0.3-1.7,0.6
			C35.4,61.6,36,61.6,36.3,61.6z"/>
		<path d="M31.8,56.5c0.3,0,0.1-0.4-0.4-0.2c-0.5,0.2-1.8,0.4-1.9,0.5c-0.2,0.1-1.6,0.5-1.6,0.6c0,0.1,0.4,0.2,1.4-0.3
			C30.4,56.6,31.6,56.5,31.8,56.5z"/>
		<path d="M42.3,57.1c0.5-0.3,0.4-0.2-0.4-0.2c-0.8,0-0.4-0.4-0.4-0.4s1.4-0.5,2.1-0.7c1.7-0.4,2.7-0.1,3.3,0
			c-0.4,0-0.7,0.2-0.6,0.3c-1.4,0.1-2.8,1-2.8,1s0.1,0.1,0.1,0.1c1.1-0.7,2.6-1,3.3-1c-0.4,0.2-1.2,0.7-1.2,0.7l0.1,0.2
			c0,0,1.5-1,2-1.3c0.5-0.2,1.4-0.3,2-0.4c0.6-0.1,2.7-1.2,3.2-1.6c0-0.2-0.7,0-1.2,0.3c-0.5,0.2-0.7,0.1-0.5-0.2
			c0.3-0.2,0.9-0.4,1.4-0.6c0.4-0.2,0.2-0.4,0.3-0.4c0.2-0.1,0.9-0.5,1.4-0.7c0.5-0.2,0.1-0.4-0.1-0.2c-0.2,0.2-0.5,0.1-0.9,0.2
			c-0.4,0-1.7,0.7-2.3,1.1c-0.6,0.3-0.8,0.2-0.4-0.1c0.4-0.3,0.3-0.5,0-0.3c-2.2,1.4-4,2.1-5.4,2.1c0.8,0.7,3-0.3,3-0.3
			s0.5,0.1,0.8,0c-0.6,0.8-2.2,1.1-2.8,1.1c-0.7-0.1-3.2-0.2-3.2-0.2s0-0.1,0.1-0.4c-0.5,0.3-1,0.5-1.8,0.7c0.2-0.3,0.4-0.7,0.6-1.1
			c-0.5,0.4-2.2,1.5-3.3,1.9c-1.1,0.4-2.1,0.4-2.1,0.4s0.5-0.2,0.8-0.8c-0.7,0.4-3,1.3-4,1.5c1.2-0.6,2.1-1.7,2.4-2.4
			c-0.5,0.4-1.7,1.2-2.5,1.4c0-0.2,0.6-0.6,1.1-1c-0.5,0.1-1.4,1-1.8,1.2c-0.4,0.1-1,0.6-1.6,0.9c-0.6,0.3-2.3,0.2-2.3,0.2
			s0.1,0.1,0.1,0.2c0.5,0.1,1.6-0.1,2.1-0.1c-0.5,0.5-1.1,0.6-1.1,0.6s0,0.1,0,0.2c0.4-0.1,1.5-0.5,2.2-0.7c-0.3,0.3-1.5,1-1.5,1
			l0.1,0.2c0,0,0.5-0.3,0.9-0.5c0.4-0.2,1-0.1,1.4-0.3c0.4-0.2,0.8-0.5,2-0.6c-0.4,0.5-2.1,1.2-2.8,1.8c1.8-0.5,4.3-1.5,5.9-1.5
			C40.6,57.9,41.8,57.3,42.3,57.1z M38.1,57.3c0,0,2.3-0.4,2.8-0.6c-0.6,0.5-1.8,0.8-2.6,0.9C38.2,57.6,38.1,57.3,38.1,57.3z
			 M32.6,57.1c0.7-0.2,1-0.4,1.7-0.8c-0.3,0.6-1.5,1.2-1.5,1.2S32.5,57.5,32.6,57.1z"/>
		<path d="M38,66.4c0,0,0.1,0.1,0.3,0.1c0.2,0,1-0.2,1.4-0.4C39,66,38,66.4,38,66.4z"/>
		<path d="M46.5,64.5c0.3-0.3,0.7-0.4,0.7-0.7c0.7-0.2,1.3-0.3,1.9-1c-0.8,0.2-1.5,0.4-2,0.5c-0.4,0.1-0.6,0.5-1.7,0.5
			c0.7-0.4,4.3-2.5,5-3c-0.5,0-0.3,0-0.7,0.2c-0.4,0.2-4.6,2.6-5.5,2.9c-0.3,0.1-0.2-0.1-0.2-0.2c-0.5,0.2-1.2,0.5-1.9,0.2
			c1-0.2,3.5-1,4.4-1.8l-0.1-0.1c0,0-1.2,1-3.6,1.5c-0.2,0-0.3-0.1,0-0.2c0.4-0.1,2.7-0.8,3.4-1.6c0.2-0.2,0-0.3-0.2-0.1
			c-0.3,0.2-2.8,1.7-4.3,1.6c0.6-0.5,1.3-1.1,2-1.3c0.7-0.2,1.1-0.2,1.4-0.6c-0.8,0.2-2.6,0.5-1.8,0.1c0.8-0.5,1-0.6,1-0.6
			s-0.4-0.3-1,0.2c-0.6,0.5-1.4,0.7-1,0.2c0.4-0.5,1-0.9,1.4-1.1c-0.5-0.1-0.8,0-1.2,0.4c-0.4,0.4-1,1.3-2.2,1
			c-0.3,0.5-2.3,1-3.8,0.5c0.3,0.5,0,0.4,0.9,0.7C36.7,63,36,63.4,35,63.5c-1,0.1-1.5,0.4-1.6,0.6c0.5,0.1,1.5,0.3,2.4,0.3
			c0.9,0,3.7-0.3,4.3-0.6c0,0.5,0,0.7-1.6,0.7c-0.8,0-2.6-0.1-3,0.3c0.3,0.1,2.1,0,3,0c0.9,0,1.9,0.2,2.7-0.8c0.6,0.3,0.2,1,3.8,0.4
			c-0.2,0.6-0.8,1.2-2.8,0.9c-0.1,0.4,0.3,0.5,0.7,0.4c-0.3,0.3-0.5,0.4-1.6,0.2c0,0.2,0.5,0.4,0.8,0.3c-0.3,0.3-0.5,0.5-1.1,0.5
			c0.6,0.2,2,0.2,2.7-0.6c-0.4,0-0.6-0.3-0.6-0.3s1.2,0.3,2-0.3c-0.2,0.5-0.3,0.8-1.1,1.1c0.9,0,2.1-0.4,3.3-1.1
			c0,0.5-0.3,0.7-0.7,0.9c0.5,0.1,1.2-0.3,1.6-0.9c0.1-0.2,0.8-0.2,0.5,0.1c-0.3,0.3-0.4,0.6-0.4,0.6s0.3-0.1,0.9-0.7
			c0.6-0.6,2.1-2,2.1-2l-0.5,0.1l0.5-0.6l-0.1-0.1l1.1-0.8l0.1,0.1l-1,1c0,0,0,0.1,0.5-0.2c0.4-0.3,0.7-0.7,0.7-0.7l0.2,0
			c0,0-1.6,1.8-2,2.1c-0.4,0.3-0.1,0.7,0.3,0.4c0.3-0.3,3-3.5,3.8-5c-1.4,1.1-4.1,2.7-5.4,3.3C48.1,63.7,48,64.3,46.5,64.5z
			 M40,63.6c-0.9,0.3-4.1,0.5-4.7,0.3c1.1-0.3,1.5-0.9,3-1.4c1.2,0.1,1.9,0.2,3.4-0.5C41.6,62.9,40.9,63.3,40,63.6z M47.9,65.3
			c0,0-0.2-0.3-0.3-0.6c2.2-1.6,2.1-1.4,3-1.9C50.2,63.9,47.9,65.3,47.9,65.3z"/>
		<path d="M79,49.1c-0.4,0.3-0.5,0.1-0.7,0c-0.3-0.2-0.9,0.1-1.3,0.3c0.5-1.1,1.7-1.8,1.7-1.8s-0.1,0-0.1-0.1
			c-1.1,0.4-1.4,1.4-1.7,1.5c-0.8,0.4-1,0.7-1.2,1c-0.2,0.3-1,0.2-1.3,0.7c-0.3,0.5-0.6,0.5-1.7,1.1c0.2,0,0.4,0.1,0.6-0.1
			c-0.2,0.5,0.5,0.1,0.9-0.1c-0.2,0.6,0.1,0.6,0.1,0.5c0.4-1.3,2.3-2.3,2.9-2.4C76.8,50,76,51,76.2,51.2c0.2,0.1,0.5-0.6,0.7-0.9
			c0.5-0.8,1.2-0.9,1.2-0.9s-0.5,0.4-0.7,0.8c-0.2,0.4,0.4,0.3,0.4,0C78.2,49.6,78.9,49.3,79,49.1z"/>
		<path d="M78.3,50.4c0,0.2,0.3,0,0.4-0.2c0.1-0.1,1-0.9,1.1-1C79.3,49.6,78.3,50.1,78.3,50.4z"/>
		<path d="M65.4,53.5c-0.6,0.4-0.9,0.6-1.3,0.8c-0.4,0.2-0.2-0.2,0.1-0.4c-1.2,0.2-2,1.3-2.9,1.4c0.3,0.1,0.1,0.3-0.4,0.5
			c0.6-0.1,1.8-0.8,2.3-1.1c0.1,0.6,1.5,0.2,3.6-0.7c-0.7,0.6-3,1.8-1.8,1.8c0.3,0,3.1-2,4.2-3.5c-1.3,0.9-2.8,1.9-4.3,2.2
			C64,54.8,64.3,54.4,65.4,53.5z"/>
		<path d="M66.8,51.4c-1,0.7-2.1,1.8-3.5,2.2c-0.5,0.2-0.6,0-0.1-0.4c0.5-0.4,2.2-1.3,2.6-2c-0.7,0.4-3.6,3-5.5,3.1
			c-0.3,0.1-0.8,0.1-0.3-0.3c0.5-0.4,2.3-2,3.7-2c0.2,0,0.3-0.1,0.3-0.1s-1.7-0.4-4.6,2.4c-1.4,1.1-2.1,0.6-2.5,0.6
			c-0.4,0-1.1-0.1-3,0.7c-0.4,0.1,0.4-0.6,1.1-0.7c-0.1-0.2,1.8-1,2.8-1.4c-1.2,0.4-4.3,1.8-3.2,0.4c-1.1,0.7-4.6,2.2-7.6,2.6
			c0.6,0.2,2.1,0.2,3.2-0.2c-2.3,1.5-2.9,1.9-4,2.3c0.7-0.1,2.1-0.5,4.4-2.3c0.5,0,0.9,0.3,2.3-0.6c-0.2,0.4-0.4,0.4-0.4,0.7
			c-0.1,0.1-0.8,0-1.1,0.6c0.4,0.1,1.6-0.3,2.6-0.9c0.9-0.6,2.6-1.2,3.2-0.7c-0.5,0.4-2.3,1-3.1,2.3c2.1-1.5,3.4-1,4.4-2.2
			c0.2-0.4,0.5,0.5,1.9-0.5c0,0,0.3,0,0.3,0s-1.7,0.9-1.8,1.1c-0.5,0.2-2,1.1-3.1,1.6c0.4,0,0.9-0.1,0.9-0.1s-2.1,1.8-4,2
			c0.7,0.1,2.5-0.3,4.1-1.7c0.2-0.2,0.6-0.2,0.2,0.2c-0.4,0.4-1.3,1-1.3,1H56c0,0-0.4,0.3-0.8,0.5c0.5,0,1.4-0.5,2.3-1.8
			c0.2-0.4,3.7-2.8,5-3.4C63.8,53.6,65.3,53.1,66.8,51.4z"/>
		<path d="M83,47.9c0,0-0.1,0-0.1,0c-0.2,0.7-1.1,1-1.1,0.8c0.1-0.7-0.6,0.1-0.8,0.3c-0.2,0.2-1.1,0.8-1.2,0.8c0,0,0,0.1,0,0.1
			c0.1,0,0.8-0.4,1-0.6c0.2-0.3,0.5-0.2,0.7-0.3c-0.4,1.1-1.2,1-1.2,1s0.2,0.2,0.5,0.2c0.3,0,0.6-0.3,0.6-0.5c0-0.2,0.3-0.6,0.6-0.7
			C82.7,48.5,83,47.9,83,47.9z"/>
		<path d="M90.2,38.5c0,0.1,0.2,0.2,0.2-0.2c0-0.4,0-0.4,0-0.6C90.3,37.9,90.2,38.2,90.2,38.5z"/>
		<path d="M90.1,37.3c-0.3,0.1-0.4,0.3-0.4,0.3s-0.1-0.3,0.1-0.7c-0.2,0.2-0.3,0.5-0.4,0.6c-0.1-0.3,0-0.6,0.3-0.9
			c-0.3,0.1-0.4,0.3-0.5,0.5c-0.2-0.4-0.3-0.8-0.2-1.6c-0.1,0.3-0.2,0.5-0.2,1c0,0.5,0.1,1,1,1.6C89.8,37.7,89.9,37.5,90.1,37.3z"/>
		<path d="M89.2,34.2c0.1,0.6,1.2,3,2.4,2.8c0-0.1-0.1-0.3-0.1-0.3S91,37,90.4,36c0.4,0.1,0.6,0.3,0.9,0.2c0-0.1-0.1-0.2-0.1-0.2
			c-0.4,0-1.1-0.5-1.2-0.7c0.4,0.2,0.6,0.3,0.8,0.2c-0.4-0.2-0.8-0.3-1-0.7c0.3,0.1,0.7,0.3,0.9,0.2c-0.3-0.1-1.2-0.3-1.2-0.9
			c0.3,0.2,0.6,0.3,0.8,0.3c0.2,0,0.5-0.2,0.5-0.2s-0.6,0-0.7-0.2c-0.2-0.2-0.4-0.5-0.7-0.5c-0.3,0-0.6-0.5-1.4-0.5
			C88.3,33.3,89.1,33.6,89.2,34.2z"/>
		<path d="M92.5,33.1c0.5,0,1.9,0.9,1.9,0.3c0-0.4-1.7-0.5-2-0.5c-0.3,0-1.8-1-1.8-1s0,0.1,0,0.2C90.8,32.2,92.1,33.1,92.5,33.1z"/>
		<path d="M92.6,39.8c0.2,0-0.2-0.6-0.2-0.8C92.3,39.1,92.4,39.8,92.6,39.8z"/>
		<path d="M97.2,34.7c0.1-0.1,0.6-0.7,0.6-0.7s-0.5,0.5-0.6,0.6C97,34.8,97.1,34.8,97.2,34.7z"/>
		<path d="M97.5,35.7c0.1-0.1,0.4-0.5,0.4-0.5s-0.3,0.2-0.4,0.4C97.4,35.8,97.4,35.8,97.5,35.7z"/>
		<path d="M93.6,34.6c-0.1,0.2,0,0.2,0.1,0.1c0.1-0.1,0.7-0.6,0.7-0.6S93.7,34.4,93.6,34.6z"/>
		<path d="M97.1,35.4c-0.1,0.2,0,0.2,0.1,0.1c0.1-0.1,0.7-0.9,0.7-0.9S97.2,35.2,97.1,35.4z"/>
		<path d="M97.2,34.1c0.1-0.1,0.4-0.5,0.4-0.5s-0.4,0.3-0.5,0.4C97,34.1,97.1,34.2,97.2,34.1z"/>
		<path d="M93.9,38.9c0.2,0-0.2-0.6-0.2-0.8C93.6,38.2,93.7,38.9,93.9,38.9z"/>
		<path d="M76.6,36.7l-2,1.7c0,0,0.2-0.4,0.2-0.7c-0.4,0.1-1.6,1.4-1.6,1.4s-0.1-0.1-0.2-0.2c0.2-0.1,1.3-1.4,1.6-2
			c-0.6-0.1-1.8,0.8-2.2,1.1c0-0.1-0.1-0.6-0.5,0c-0.4,0.6-1.6,1.8-2.1,2.4c-0.5,0.6-0.9,0.8-0.9,0.8s0.1-0.3,0-0.5
			c-0.4,0.7-1.2,1-1.8,1.2c0.4,0,0.8-0.1,1-0.3c-0.4,1-1,1.5-1.7,1.8c0.1,0,0.5,0,0.5,0l0.2,0.1c0,0,0.5-0.4,0.5-0.5
			c0.1-0.1-0.1-0.2,0.2-0.5c0.3-0.2,0.8-0.8,0.9-1c0.1-0.2,0.3,0,0.4,0.1c0,0.1,0.1,0.2,0.3,0c0.2-0.1,0.3,0,0.3,0.1
			c0,0.2,0.1,0.2,0.2,0.1c0.1-0.1,0.4-0.4,0.6-0.5c0.2-0.1,0.3,0,0.2,0.2c-0.1,0.1-0.6,0.5-0.8,0.7c-0.2,0.1,0.1,0.2,0.1,0.3
			c0,0.1,0.2,0.2,0.4,0.1c0.2-0.1,1.2-0.7,1.4-0.8c0.2-0.1,0.1-0.2-0.1-0.2c-0.1,0-0.1,0-0.3,0.1c-0.2,0.1-0.3-0.2-0.2-0.2
			c0.1-0.1,0.3-0.4,0.5-0.5c0.2-0.1-0.1-0.1-0.2,0c-0.3,0.1-0.6,0-0.7-0.2c-0.3,0.5-0.5,0-0.4-0.3c-0.2,0.1-0.4,0.1-0.3-0.1
			c0-0.2,0.5-0.6,0.5-0.6s0.1,0.2,0.2,0.4c0.2-0.4,0.7-0.9,1-1.1c0.3-0.1,0.2,0,0.1,0.3c-0.1,0.3,0.3-0.2,0.6-0.6
			c0,0.4,0.2,0.6,0.3,0.6c0.2,0,0.8-0.1,0.8-0.1s-0.4,0.4-0.6,0.6c-0.2,0.1-0.1,0.3,0,0.3c0.2,0,0.2-0.2,0.4-0.2c0.6,0,1-0.6,1-0.6
			c0.2-0.2,2.1-1.7,2.1-1.7l-0.1-0.1l-1.1,0.9l-0.2-0.2l1.6-1.5L76.6,36.7z M71.8,38.8c0.2-0.2,0.3-0.2,0.4-0.4
			C72.5,38.7,72.1,38.9,71.8,38.8z M72.7,38.6c0.2-0.4,0.8-0.9,1-1c0.1,0.1,0.2,0.2,0.2,0.2S73.3,38.5,72.7,38.6z"/>
		<path d="M72.2,42.1c-0.2,0.3-0.9,0.8-1.2,1c-0.2,0.1,0,0.2,0.1,0.1c0.4-0.3,0.7-0.4,0.7-0.4l0,0.4c0,0,0.6-0.6,0.7-0.8
			C72.4,42.4,72.2,42.4,72.2,42.1z"/>
		<path d="M82,34.4c-0.9,1.2-0.9,0.2-1.4,0.8c-0.9,1.1-0.8,0.5-0.7,0.3c0.1-0.2,0.6-0.9,0.9-1.2c-0.7,0.2,0.2-0.7,0.2-0.7l-0.3-0.3
			c0,0-0.4,0.6-0.8,0.9c-0.4,0.3-0.4-0.2-0.6-0.5c-0.6,0.7-1.1,0.6-1.1,0.6s0.3-0.4,0.7-1c-0.2,0.2-0.7,0.2-0.7,0.2s0.3-0.6,0.8-1
			c-0.3,0.2-0.6,0.2-0.8,0c0,0.2-0.3,0.3-1,0.8c0.2,0,0.4,0,0.8-0.2c0,0.1,0,0.3-0.4,0.6c0.1,0.1,0.2,0.3,0.5,0.2
			c-0.2,0.4-1,1.4-1.4,2c0.5-0.1,0.9-0.5,1.3-1c0.5-0.5,0.7-0.3,0.5-0.1c-0.1,0.2-0.4,0.7-0.9,1.1c0.5,0.2,1.3-1.1,1.3-1.1
			s0.1,0.1,0.2,0.3c-0.4,0.5-1.1,1.5-1.1,1.5s0.9-0.7,1-0.6c-0.2,0.1-0.5,0.7-0.6,1.1c0.1-0.2,0.4-0.5,0.8-0.7c0,0.1,0,0.1,0.1,0.2
			c0.3-0.6,0.8-1,1.2-1.2c-0.1,0.4,0,0.5,0.2,0.6c0.4-0.7,1.4-1.8,1.4-1.8S82.1,34.3,82,34.4z"/>
		<path d="M71.1,48.8c-0.4,0.5-1.3,0.9-1.4,0.9c-0.1,0,0,0.2,0,0.2s1.1-0.4,1.6-1c0.5-0.6,1.3-1,1.3-1l0-0.2
			C72.5,47.8,71.5,48.3,71.1,48.8z"/>
		<path d="M69.1,48.1c0,0,0.2,0.3,0.6,0.3c0.5,0,1.9-0.2,2.2-0.8c-0.4,0.2-1.6,0.6-2.1,0.6C69.4,48.2,69,48.1,69.1,48.1z"/>
		<path d="M67.8,52.2l0,0.2c0,0,0.5-0.1,1.4-1.1c1-0.9,3.1-1.8,3.7-1.9c-0.6,0.7-1.4,1.5-2.8,2c-0.1,0.2,0.8,0,2.3-1.1
			c0,0.3-0.3,0.7-0.9,1.1c0.3,0,0.7-0.2,1.9-1.1c0.1,0,0.4,0.2-0.4,0.7c0.3-0.1,1.9-0.8,2.3-1.7c0.1-0.3,1.5-1.1,1.7-1.3
			c0-0.1-0.1-0.1-0.1-0.1s-1.1,0.8-1.7,1c-0.6,0.2-0.6,0-0.1-0.3l1.2-0.9L76,47.5c0,0-2.3,1.3-3.2,1.6c-0.9,0.2-3.1,1.6-3.8,2.3
			C68.3,52.1,67.8,52.2,67.8,52.2z"/>
		<path d="M93.5,35.7c-0.1,0.2,0,0.2,0.1,0.1c0.1-0.1,0.7-0.8,0.7-0.8S93.6,35.5,93.5,35.7z"/>
		<path d="M93.4,36.3c-0.1,0.2,0,0.2,0.1,0.1c0.1-0.1,0.5-0.7,0.5-0.7S93.5,36.2,93.4,36.3z"/>
		<path d="M93.4,36.9c-0.1,0.2,0,0.2,0.1,0.1c0.1-0.1,0.5-0.7,0.5-0.7C93.8,36.4,93.5,36.7,93.4,36.9z"/>
		<path d="M82.7,35.7c0-0.3,0.1-0.4,0.2-0.5c-0.4,0.2-0.5,0.2-0.6,0.2c0.2-0.4,0.4-0.7,0.4-0.7s-1,1-1.2,1.5c0.4-0.2,0.8-0.5,1-0.6
			c-0.1,0.3-0.1,0.4-0.2,0.7c0.2-0.2,0.4-0.2,0.4,0.1c0,0.3,0.1,0.8,0.4,0.8c-0.2-0.3-0.6-1.1,0.1-1.6C83,35.5,82.9,35.6,82.7,35.7z
			"/>
		<path d="M20.1,38.1c0.6,0,1.9-0.8,2.1-0.9c0.2-0.1,0.9-0.1,1.3-0.6c0.4-0.5-0.6,0.1-1,0.2c-0.4,0.1-1.7,0.3-2.1,0.3
			c-0.4,0-0.4,0.1-0.8,0.4c-0.4,0.3-1.1,0.3-1.6,0.3c-0.4,0-0.7,0.1-0.5,0.3c0.4,0.3,0.8,0.1,1.1,0C19.1,37.8,19.4,38.1,20.1,38.1z"
			/>
		<path d="M40.9,10.5c0,0.6,0.2,1.4,0.6,1.4c0.6,0.7,0.4-0.2,0.1-0.7c-0.5-0.8-0.6-1.5-0.8-1.8c-0.1-0.3-0.2,0.1-0.1,0.4
			C40.7,10.2,40.9,9.9,40.9,10.5z"/>
		<path d="M39.2,15.9c0.4,0.4,0.7,0.9,0.1,0.5c-0.7-0.4-2-0.7-1.1-0.3c0.9,0.4,2.4,1,3,2c0.6,1,0.6,1.7,0.9,1.3
			c0.3,0.5,0.8,1.4,0.9,1.6c0.1,0.2,0.5,0.2,0.2-0.2c-0.3-0.4-0.6-1.1-0.7-1.5c-0.2-0.5-0.4-0.1-0.5-0.3c-0.1-0.3,0.2-0.4,0.5,0.1
			c0.3,0.5,0.9,1.5,1.1,2c0.2,0.5,0.6,1.1,0.9,0.8c0.1-0.1-0.3-0.3-0.5-0.6c-0.2-0.3-0.6-1.2,0-0.5c0.6,0.7,1.1,1.1,0.8,0.7
			c-0.3-0.3-0.7-0.9-0.8-1.3c-0.2-0.3-0.7-0.4-1-0.9c-0.3-0.5,0.1-0.5-0.7-1.1c-0.4-0.3-0.5-0.7-0.8-1c-0.2-0.3-0.7-0.3-0.3,0.1
			c0.3,0.4,0.2,0.6-0.2,0.2c-0.4-0.4-1.3-1.3-1.6-1.7C39.3,15.6,38.8,15.4,39.2,15.9z"/>
		<path d="M41.5,14c0.2,0.2,0.2,0.2,0.5,0.7c0.3,0.5,0.3,0.1,0.2-0.1c0-0.2-0.3-0.1-0.3-0.4c0-0.3-0.2-0.3-0.4-0.9
			c-0.1-0.6-0.3-0.7-0.3-0.3c0,0.4-0.3,0.2-0.3-0.3c0-0.5-0.2-0.4-0.2,0.3C40.7,13.6,41.3,13.8,41.5,14z"/>
		<path d="M43.2,12.8c0.2,0.2,0.2,0,0.1-0.2c-0.1-0.3-0.8-1.1-1-1.6c-0.2-0.6,0.1-0.2,0.3,0.1c0.2,0.3,0.4,0.8,0.6,1
			c0.2,0.3,0.3,0.1,0.1-0.1c-0.2-0.3-0.8-1.5-1-1.7c-0.1-0.1,0-0.4-0.1-0.5c-0.1-0.1,0,0.4-0.2,0.3c-0.2-0.1-0.4-0.4-0.4-0.1
			c0,0.3,0.4,0.5,0.4,0.8C42.1,11.2,43.1,12.6,43.2,12.8z"/>
		<path d="M41.5,16.2c-0.3,0-0.5,0.1-0.1,0.3c0.4,0.2,0.9,1.2,1.2,1.5c0.3,0.4,1,1.1,0.4,0c-0.2-0.3-0.7-0.9-0.8-1.1
			c-0.2-0.2-0.3-0.5,0-0.4c0.3,0.1,0.3,0.1,0-0.2c-0.3-0.3-0.5-0.9-0.1-0.6c0.3,0.3,0.3,0.1,0.2-0.1c-0.2-0.2-0.5-0.4-0.7-0.3
			c-0.2-0.3-0.7-0.5-0.5,0C41.3,15.8,41.7,16.2,41.5,16.2z"/>
		<path d="M28,14.6c2.3-0.3,5.6-0.3,8,0.8c2.4,1.1-0.4-0.5-1.1-0.7c-0.6-0.2,1,0.1-1.2-0.6c-0.9-0.3-3.6-0.6-3.9-0.6
			c-0.3,0-2.1,0.3-0.5,0.4c1.6,0.1,0.3,0.2-0.6,0.2C27.7,14.2,25.7,14.9,28,14.6z"/>
		<path d="M30.9,13.4c0.6-0.1,1.8,0.3,2.6,0.3c0.8,0,1.5,0.7,2,0.7c0.5,0,0.7,0.1,1.6,0.4c0.9,0.3,1.3,0.5,0.9,0.1
			c-0.5-0.4-2.6-1.1-3.9-1.6c-1.3-0.5-1-0.3-1.5,0c-0.5,0.2-0.8-0.1-1.7-0.1C30,13.1,30.3,13.5,30.9,13.4z"/>
		<path d="M44.7,12.8c0.3,0.2,0.5-0.1,0.2-0.3c-0.3-0.2-0.2-0.6,0.1-0.3c0.3,0.3,0.8,1,1.2,1.3c0,0.3,0,0.7,0.6,1
			c0.2,0.1,0.4,0.5,0,0.3c-0.4-0.2-0.8-0.1-0.5,0.1c0.3,0.2,0.5,0.3,0.8,0.4c0.3,0.1,0.7,1.2,1.2,1.5c-0.2,0.1-0.3,0.2,0.1,0.4
			c0.4,0.2,1,1,0.4,0.8c-0.6-0.2-0.3-0.5-1.1-0.5c-0.8-0.1-0.4-0.4-0.7-0.3c-0.3,0-0.1,0.4,0.6,0.6c0.8,0.2,0.7,0.7,1.6,1
			c0.8,0.3,0.3,0.3,0,0.2c-0.3-0.1-1.6-0.8-1.9-1c-0.4-0.1,0.3,0.3,0,0.4c-0.3,0.1-0.4-0.1-0.7-0.1c-0.3,0-0.2,0.4,0.2,0.4
			c0.3,0,1.7,1.1,2.2,1.3c0.5,0.2-0.7,0.3-1.2-0.1c-0.5-0.5-1.6-1.3-1.8-1.3c-0.2,0.1,0.8,0.7,1.1,1c0.2,0.3,0,0.4,0.6,0.6
			c0.6,0.2,0.7,0.5,0.3,0.5c-0.3,0-0.7,0.1-0.2,0.3c0.5,0.1,1.2,0,1.2,0.4c0,0.4-0.3,0-0.7,0c-0.4,0.1-0.6,0.5-0.1,0.5
			c0.5,0,0.1,0.5,0.9,0.4c0.1,0.3-0.1,0.8-0.5,0.9c-0.4,0.1-0.5,0.2,0,0.2c0.5,0,0.8-0.3,1.2-0.3c0,0.4,0.3,1.3,1.9,1.2
			c0.7-0.1,0.8,0.2,0.2,0.4c-0.6,0.2-1.8,0.5-1.2,0.6c0.6,0.1,0.2,0.6,1,0.4c0.8-0.1,0.7,0.1,0.4,0.2c-0.3,0.1-0.3,0.4-0.6,0.4
			c-0.3,0.1,0.1,0.3,0.7,0.2c0.6-0.1,0.3,0.3-0.1,0.2c-0.4,0-0.9,0.2-0.1,0.2c0.8,0.1,0.3,0.5,1,0.4c0.8-0.1,1.5-0.2,1.1,0.1
			c-0.4,0.2-0.6,0.3-0.7,0.3c-0.2,0,0.7,0.3,0.4,0.4c-0.3,0.1-0.6,0.2-0.3,0.2c0.2,0,1.1-0.4,0.7-0.1c-0.3,0.3-0.9,0.7-0.4,0.6
			c0.5-0.1,0.9-0.8,0.9-0.4c0,0.4,0.3,0.6-0.4,0.8c-0.7,0.2-0.6,0.6-0.3,0.4c0.3-0.2,1.1-0.7,0.7,0.1c-0.4,0.8-0.6-0.2-0.8,0.3
			c-0.2,0.5,0.1,0.5,0.3,0.5c0.2,0,0.2,0.3,0.4,0.1c0.3-0.2,0.5-0.5,0.9-0.5c0.3-0.1,0.5-0.3,0.2-0.3c-0.4,0-0.9,0.5-0.7,0
			c0.2-0.5,0.7-0.9,0.8-1.5c0.1-0.6-0.1-0.1-0.3,0.1c-0.2,0.2-0.5,0-0.4-0.2c0.1-0.2-0.3-0.2,0-0.3c0.3-0.2,0.4-0.4,0.1-0.5
			c-0.3-0.1-0.8-0.1-0.6-0.5c0.1-0.4,0-1.1,0-1.4c-0.1-0.3,0.3-2-0.2-1.3c-0.5,0.7-0.7,1.4-1.4,1.7c-0.6,0.3-0.7-0.3-0.2-0.4
			c0.5-0.2,0.9-0.4,0.4-0.4c-0.5,0.1-0.7-0.1-0.3-0.3c0.3-0.1,0.5-0.1,0.6,0c-0.1-0.1-0.3-0.2-0.3-0.4c0.1-0.3,0.8-0.6,0.2-1
			c-0.6-0.4-0.4-0.6-0.1-0.5c0.3,0,0.4,0.6,0.7,0.7c0.3,0,0.4-0.6,0.1-0.8c-0.3-0.2-1.2-0.3-1-0.6c0.2-0.4,0.3-0.2,0.6-0.2
			c0.3,0,0.6-0.4,0-0.2c-0.6,0.2-0.7-0.1-0.5-0.3c0.2-0.2,0-0.4-0.3-0.2c-0.3,0.2-0.7-0.1-0.5-0.3c0.2-0.2,0.2-0.4-0.1-0.3
			c-0.3,0.1-2.1-1.4-1.6-2.3c0.4-0.9,0.1-0.3-0.3-0.3c-0.3,0-2.1-1.8-2.3-2.6c-0.2-0.8-1.3-1.4-1.5-1.8c-0.2-0.4,0.5-0.3,0-0.8
			c-0.6-0.5-1.8-1.1-2-1.6c-0.2-0.4-0.6-0.2-0.3,0.4c0.3,0.6-0.2,0.4-0.4-0.1c-0.2-0.6-1-1.3-0.8-0.8C43.1,11.4,43.9,12.4,44.7,12.8
			z M47.5,18.6c-0.4-0.4,0.5-0.1,0.9,0.2c1.8,0.7,1.3,1.1,0.8,0.9C48.8,19.6,47.9,19.1,47.5,18.6z M51.6,25.3
			c-0.4-0.1-0.4-0.6,0.4-0.4C52.8,25.1,51.9,25.4,51.6,25.3z M50.8,22.9c0.5,0,0.6,0.2,1.1,0.3c0.4,0,1,0.4,1,0.8
			c0,0.4-0.5,0.5-0.4,0.2c0.1-0.2-0.4-0.6-0.8-0.8c-0.3-0.1-0.9,0-1.5-0.2C49.6,23.1,50.4,22.9,50.8,22.9z M50.1,21.9
			c-0.7-0.1-2-0.5-0.7-0.5C49.7,21.3,50.8,22,50.1,21.9z"/>
		<path d="M34.8,12.7c0.7,0.2,1.7,1,2.5,1.3c0.8,0.3,0.7,0.7,1.2,0.8c0.6,0.1-0.4-0.4,0.2-0.3c0.6,0.2,0-0.2-0.4-0.4
			c-0.5-0.1-2.6-1.3-3.2-1.5C34.3,12.4,34.1,12.5,34.8,12.7z"/>
		<path d="M39.1,12.9c0.1,0.2,0.4,0,0.2-0.1c-0.2-0.2-0.7-0.5-0.8-0.7c-0.2-0.2-0.5-0.2-0.3-0.1C38.4,12,39,12.6,39.1,12.9z"/>
		<path d="M64.8,15.5c0.3,0.2-0.1,0.9-0.4,0.2c-0.3-0.7-1.2-0.9-1.5-1.7c-0.3-0.7-0.9-1.3-1-1.4c-0.1-0.1,0,0.6-0.2,0.2
			c-0.3-0.4-0.5-0.6-0.6-0.8c-0.1-0.1,0,0.4,0.2,0.7c0.2,0.3,1.2,1.3,1.6,2.3c0.7,1.7,1.6,2.3,1.2,1.6c-0.4-0.8-0.5-1.4-0.2-1
			c0.3,0.5,0.4,1,0.9,1.1c0.2,0.4,0.7,1.3,0.9,0.8c0.2,0,0.3-0.2,0-0.5c-0.3-0.3,0.1-0.4,0.4,0.2c0.3,0.6,0.4,0,0.1-0.4
			c-0.4-0.4-0.9-1.1-0.8-1.5c0-0.3-0.6-0.3-0.9-1.1c-0.4-0.7-1.1-1.7-1.2-1.9c-0.2-0.2-0.6-0.5-0.2,0.1
			C63.2,13.2,64.5,15.3,64.8,15.5z M62.9,15c-0.3-0.5-0.5-1.1-0.6-1.2c-0.1-0.1-0.3-0.2-0.3-0.4c-0.1-0.2,0.5,0.3,0.7,0.7
			C62.9,14.4,63.2,15.5,62.9,15z"/>
		<path d="M66.9,16.2c0.1,0.3,0.8,1.5,0.9,1.8c0.2-0.2,0-0.7-0.1-1c0.4-0.1,0.4-0.7,0.1-0.9c-0.3-0.2-0.2,0-0.1,0.2
			c0.1,0.2-0.1,0.4-0.1,0.3c-0.2-0.4-0.4-0.1-0.5-0.3c-0.1-0.2-0.5-0.7-0.8-1.1c-0.3-0.4-0.5-0.5-0.5,0c0,0.5,0.8,1.5,1.2,2
			C66.5,16.2,66.7,15.9,66.9,16.2z"/>
		<path d="M26.2,17.2c-1.2-0.1,0.3-0.3,0.8-0.3c0.5-0.1,3-0.4,4.8-0.2c0.9,0,1.1-0.3,0.1-0.2c-1,0.1-1.7-0.1-1.2-0.2
			c0.5-0.1-0.4-0.4-0.8-0.2c-0.3,0.2-1.8,0.4-2.2,0.5c-0.4,0.1-1.3,0.1-0.3-0.2c1.9-0.6,1.4-0.8,0.8-0.5c-0.6,0.2-1.2,0.6-0.9,0.2
			c0.3-0.4,0.3-0.5,0-0.3c-0.3,0.2-1.1,1.1-1.4,1.3c-0.3,0.2-2.6,1.3-2.9,1.8c-0.1,0.1,0.9-0.3,1.5-0.7
			C25.4,17.5,27.4,17.3,26.2,17.2z"/>
		<path d="M57.2,8.8c0.1,0.4,0.6,0.9,1.1,0.9c0.5,0,0.7,0.2,1.2,0.5c0.5,0.3,2,1.5,2.9,2.7c0.2,0.2,0.3,0.1,0.2,0
			c-0.1-0.2-1.8-2-2.4-2.5c-0.6-0.4-1.2-0.8-1.1-0.9c0.2-0.1,0.4-0.2,0.2-0.3c-0.2-0.1-0.5-0.3-0.4,0c0.1,0.2-0.2,0.3-0.4,0
			c-0.2-0.2-0.6-0.4-1-0.4c-0.3-0.4-0.8-0.8-1.2-0.8c-0.4,0-0.6,0.3-0.3,0.3C56.3,8.2,57.2,8.4,57.2,8.8z"/>
		<path d="M46.9,11.6c0.3,0.3-0.2,0.6-0.3,0.2c-0.1-0.4-0.5-0.6-0.4-0.3c0.1,0.3,0.6,1.2,0.8,1c0.2-0.2,0.2,0.2,0.7,0.3
			c-0.1-0.2-0.2-0.2-0.3-0.6c0.3,0,0.6-0.2,0-0.6c-0.6-0.4-1.3-1.2-1.4-1.4c-0.1-0.2,0,0.1,0.1,0.4C46.3,11,46.6,11.3,46.9,11.6z"/>
		<path d="M67.1,20.3c-0.6-0.5-1.9-1-2.3-1.5c-0.4-0.6-0.1,0.7,0.7,1.1c0.8,0.4,0.4,0,1.3,0.6c0.9,0.6,1.4,1.3,1.8,1.5
			c0.3,0.2,1.1,0.7,0.9,0.4c-0.3-0.3-1.9-2.1-1.9-2.6C67.2,19.9,67.6,20.9,67.1,20.3z"/>
		<path d="M68,24.8c0.3,0,0.5,0.1,0.7,0.2c-0.1,0.3-1.1,0-1.5,0.3c0.8-0.1,1.6,0.2,1,0.2C67.3,25.3,66.8,26,66,26
			c-0.2,0-0.7,0.6-0.5,0.7c-0.3,0-1,0.4-1,0.4s0.1,0.1,0.2,0.2c0.3-0.3,0.6-0.4,0.6-0.2c-0.2,0.1-0.6,0.4-0.8,0.8
			c0.7-0.7,1.8-1.1,2.2-1.2c-0.1-0.4,0.2-0.3,0.4-0.3c0-0.4,0.1-0.3,0.5-0.5c0-0.6,0.5-0.1,0.7-0.3c0.9-0.7,1.8-0.3,1.9-0.1
			c0,0-0.2,0-0.5,0.1c0.1,0.1,0.8,0.3,0.7,0.4c-0.2,0.1-0.7-0.3-0.9-0.2c0.4,0.2,0.5,0.4,0.8,0.6c-0.2,0.1-0.6-0.3-0.8-0.3
			c-0.2,0-0.1,0.2,0.1,0.2c-0.2,0.1-0.1,0.1,0,0.3c-0.3,0-0.8,0.3-0.7,0.5c-0.1,0-0.5,0.3-0.7,0.6c-0.2,0-0.7,0-0.6,0.2
			c-0.4,1.1-2,1.1-2.2,1.2c-0.2,0,0.4,0.1,0.6,0c0.3-0.1,0.3,0.2,0.5,0.2c0.3,0,0.5-0.2,0.8-0.2c-0.1,0.3-0.4,0.3-1,0.4
			c0.2,0.1,0.6,0.1,0.6,0.1s0,0.1-0.2,0.4c0.5-0.1,0.9-0.5,1.2-0.6c0.1,0.4-0.1,0.5-0.5,0.7c0.5,0,0.9-0.5,0.6-1
			c0.3,0.2,0.6,0.3,1,0.3c0,0,0,0,0,0c1.7,0.3,3.2-0.4,3.4-0.5c0.1,0.1,0.2,0.5,0,1c0.1,0.1,0.3,0.1,0.6,0c-0.1,0.3-0.3,0.7-1,1.1
			c0.6-0.1,1-0.4,1.3-0.8c0.3-0.4,0.8-0.1,1.1,0c0-0.2,0.5-0.6,0.9-1c-0.2,0.2-0.5,0.3-0.5,0.3s0.1-0.3,0-0.4
			c-0.1,0.4-0.4,0.8-0.9,0.8c-0.5,0-0.2-0.6-0.3-1c0.2,0.1,0.5,0,0.7-0.1c-0.3,0-0.4-0.1-0.6-0.2c0.2-0.3,0.1-0.5-0.2-0.6
			c0.5-0.3,0.3-0.4,0.6-0.8c-0.3,0.5-0.6,0.6-0.9,0.6c-1.1-0.8-1.7-2.4-2.5-2.9c0.2,0.5,0.2,0.4,0.1,0.8c-0.3-0.6-0.7-1.1-1.1-1.1
			c0.2,0.1,0.3,0.5,0.3,0.6c-0.2,0-0.4-0.3-0.8-0.4c0,0-0.4-0.2-1.1-0.1C69.7,24.9,68.8,24.7,68,24.8z"/>
		<path d="M48.9,11.1c0.7,0.6,1.4,0.8,1.8,1.2c0.4,0.4,0.7,0,0-0.4c-0.6-0.4-1.2-0.5-1.5-0.8C48.9,10.9,48.2,10.5,48.9,11.1z"/>
		<path d="M54.1,15.9c0.3,0.4,0.7,1.2,0.3,0.8c-0.6-0.7-0.6,0-0.7-0.2c-0.1-0.4-1-0.8-0.7-0.4c0.3,0.4,0.6,0.6,0.2,0.5
			c-0.4-0.1-0.9-0.2-0.7-0.4c0.3-0.2-0.3-0.4-0.6-0.4c-0.3,0-0.5,0.1,0.1,0.2c0.7,0.1-0.5,0,0.1,0.5c0.6,0.5,1.5,0.7,1.9,1
			c0.5,0.3,1.4,1.2,0.8,0.9c-0.6-0.2-1.1-0.8-1.6-0.8c-0.5,0-1.1-0.3-0.7,0c0.4,0.3,0.6,0,1,0.3c0.5,0.3,1.5,1,1.8,1.2
			c0.3,0.2,0.8,0.9,0.8,1.3c0,0.4-0.4,0.1-0.6-0.3c-0.2-0.4-0.3-0.8-0.9-1c-0.6-0.2-0.4,0.4-0.1,0.5c0.3,0.1,1.1,0.8,1.2,1
			c0.1,0.2,0,0.3-0.2,0c-0.2-0.3-1.3-1-1.6-1.1c-0.3-0.2-0.3,0,0.2,0.3c0.6,0.3,1.5,1.2,1.7,1.6c0.3,0.4,0.2,0.3-0.3,0.1
			c-0.5-0.2-0.2,0,0.3,0.4c0.6,0.4,0.5,1.2,0.9,1.4c0.5,0.2-0.4,0.3,0.5,1.7c0.2,0.2,0.2,0.3,0.1,0.7c-0.1,0.4,0.2,0.6,0.3,0
			c0.1-0.6,0.2-0.1,0.2,0.5c0,0.7,0.2,1.2,0.3,0.4c0.1-0.9,0.3-1.4,0.3-0.5c0,0.9,0.3,1.1,0.4,0.6c0.1-0.5,0.3-1.6,0.3-2.1
			c0-0.5-0.4-1.4-0.4-0.4c-0.1,0.4-0.3,0.1-0.3-0.4c0-0.6-0.1-1.5-0.3-1.5c-0.2,0,0.3,0.9-0.2,1.2c-0.4,0.3-0.3-0.5-0.2-0.9
			c0-0.4-0.3-1.4-0.7-2.1c-0.5-0.7-1.4-2.1-1.7-2.5c0.2-0.3,0.2-0.2-0.1-0.7C55,16.5,53.8,15.5,54.1,15.9z M57.7,23.9
			c0.3,0.1,0.4,0.9,0.1,0.8c-0.3,0-0.3-0.5-0.5-0.9C57.1,23.5,57.3,23.8,57.7,23.9z"/>
		<path d="M50.1,14c0.5,0.5,0.9,0.4,1.2,0.7c0.3,0.3-0.5,0.1-0.4,0.3c0.2,0.1,0.3-0.1,0.6,0.3c0.2,0.4,0.2,0,0.1-0.2
			c-0.1-0.2,0.3-0.2-0.2-0.5c-0.5-0.3-2-1.2-2.3-1.6c-0.4-0.4-0.5-0.4-0.6-0.1c-0.3,0.3-0.2-0.4-0.4-0.1c-0.2,0.4,0.2,0.1,0.5,0.4
			C48.8,13.3,49.7,13.5,50.1,14z"/>
		<path d="M51.4,10.7c0.7,0.5,2.6,2.4,3,2.9c0.4,0.5,0.4-0.1-0.4-0.9c-0.7-0.7-1.8-1.8-2.2-2.1C51.4,10.4,50.7,10.2,51.4,10.7z"/>
		<path d="M19.3,42c-0.4,0.2-0.6,0.3-0.5,0.3c0.1,0,0.9-0.1,1-0.1C19.8,42.1,19.7,41.9,19.3,42z"/>
		<path d="M19.2,43c0.3,0.1,0.8-0.3,0.7-0.3C19.8,42.7,18.5,42.9,19.2,43z"/>
		<path d="M27.4,46.4c0,0,0.1-0.2-0.1-0.4c-0.2,0.3-0.8,0.5-1.5,0.5c-0.7,0-3.4,1.1-3.4,1.1s-0.1,0.4-0.4,0.6c0.9-0.6,3.8-1.3,5-1.4
			c-1.6,1.2-3,2-4.5,3c1.2-0.1,6-3.4,8.7-4.4C29.9,45.4,27.4,46.4,27.4,46.4z"/>
		<path d="M24.3,42.5l0.1-0.5l2.1-1.2c0,0-0.7,0.8-1,1.1c-0.3,0.3-0.1,0.4,0.1,0.2c1.1-1.3,2.4-2.1,2.8-2.3c0.7-0.3,0.3-0.7-1.1,0.3
			c-1,0.7-3.7,2.5-5.1,2.8c-0.6,0.1-1.1,0.1-1.7,0.2c0.2,0.3,1.1,0.2,1.1,0.2s-0.3,0.2-0.7,0.3c-0.4,0.1-0.8,0.3-0.2,0.3
			c0.6,0,1.9-0.5,2.4-0.8C23.5,42.6,24.3,42.5,24.3,42.5z"/>
		<path d="M21.5,41.2C22,41,22.4,41,23.2,41c0.8,0,0.9-0.3,1.2-0.6c0.3-0.3,0.5-0.6-0.2-0.2c-0.6,0.4-2.1,0.4-2.4,0.5
			c-0.3,0.1-1.3,0.5-1.7,0.6c-0.5,0.1-1.3,0.4-1.6,0.7c0.3,0,0.6-0.2,0.9-0.3C20.4,41.6,21.1,41.4,21.5,41.2z"/>
		<path d="M73.7,24.1c-0.2,0.7,0.3,0.8,0.5,0.8c0.1,1.1,1.2,0.2,0.5-0.5c-0.5,1-0.2-0.2-0.3-0.5c0,0.3-0.2,0.5-0.4,0.5
			c-0.3,0,0-0.5,0-1c-0.1,0.4-0.4,0.3-0.4,0c0.2-1.4-0.3-1.7-0.3-1.7c0.1,0.1,0.2,0.9,0.1,1.2C73.3,23.6,73.4,23.9,73.7,24.1z"/>
		<path d="M30.7,55.3c0.7-0.4,2.1-0.4,2.7-0.7c-0.5-0.2-2.2,0.3-2.9,0.5c-0.7,0.3-1.3,0.3-2.4,0.4C28.6,55.8,30,55.7,30.7,55.3z"/>
		<path d="M31,53.8c0.4,0,0.7-0.2,1.4-0.2c0.7,0,1.5,0.4,2,0.3c-1.1-0.6-3-0.6-3.5-0.6c-0.6,0-1.7,0.2-1.7,0c0-0.3,0.2-0.3,2.4-0.3
			c2.2,0,3.7,0.8,4.4,0.8c0.7,0,1.2,0.1,1.3,0.3c0.4-0.4,1.3-0.7,2.1-0.9c-0.4,0.1-1.4,0.1-2.3,0.1c-0.9,0-2.2-0.6-6.3-0.6
			c-1.5,0-2.9,0.7-3.3,0.8c-0.4,0.1-0.6,0.4-0.6,0.4s1.4-0.2,2.2-0.2C29.8,53.6,30.6,53.8,31,53.8z"/>
		<path d="M30.3,48.5c0.7-0.5,2.5-0.8,3.4-1.3c-0.9-0.2-4.9,1.4-6.3,1.5c1.1-1,3.2-1.8,3.4-2.2c-0.5,0-1.9,0.5-2.1,0.7
			c-0.4,0.4-3.6,1.7-4.1,2c-0.5,0.3-0.5,0.3-0.7,0.7c1-0.6,1.7-0.6,2.2-0.4c-0.2,0-0.6,0.1-0.9,0.6c1.7-0.9,7-1.2,8.5-1.6
			C32.7,48.8,30.9,48.6,30.3,48.5z"/>
		<path d="M31.5,52l0.1-0.4c0,0,0.9,0.1,1.6,0.1c-0.3-0.3-2.1-0.4-2.8-0.3c-2.7,0.6-4.7,1.7-4.7,1.7s1.8-0.5,2.4-0.7
			C29.6,51.8,31.5,52,31.5,52z"/>
		<path d="M29.7,50.1c-0.3,0.5-1.2,0.9-1.8,1.1c-0.8,0.1-2.2,1.2-1.4,0.9c0.6-0.2,2.1-0.7,2.9-0.9c0.8-0.2,1.4-0.9,1.4-0.9
			s-0.6,0.2-1.2,0.4C29.8,50.5,29.7,50.5,29.7,50.1z"/>
		<path d="M25.3,38.1c0.2-0.1-0.2-0.5-0.6-0.1c-0.4,0.4-0.7,0.6-0.8,0.8c-0.2,0.1-1.7,0.4-1.9,0.5c-0.4,0-1.5,0.1-1.9,0.1
			c-0.4,0-2.2,0-0.7,0.3c1.5,0.3,3.3,0,3.9,0s3.4-0.8,3.7-1c0.3-0.2,0.1-0.2-0.4-0.1c-0.5,0.1-2.1,0.8-3.8,0.8
			c-0.6,0-0.7-0.1-0.2-0.2c0.6-0.2,3.5-0.5,4.3-1.3c0.4-0.3,0.4-0.4-0.2-0.1c-0.6,0.3-2.1,0.8-2.5,0.9C24.5,38.4,25,38.2,25.3,38.1z
			"/>
		<path d="M26.9,34c-1,0.2-2.3,0.6-3,0.8c-0.6,0.2-0.5-0.3-1.1,0c-0.5,0.3-1.9,0.4-2.3,0.5c-0.4,0.1-0.7,0.3-1.1,0.4
			c-0.4,0.1-0.2,0.2,0.3,0.1c0.4-0.1,1-0.1,1.3-0.3c0.3-0.2,0.6-0.1,0.4,0.1c-0.1,0.1-0.4,0.3-0.2,0.3c0.2-0.1,1.2-0.6,1.6-0.6
			s0.4,0.2,0.6,0.2c0.2,0,0.6-0.4,1.2-0.6c0.6-0.2,1.7-0.4,2.7-0.5C28.4,34.1,27.9,33.8,26.9,34z"/>
		<path d="M29,17.5c1-0.5-1.1,0.1-1.1,0.1S28.6,17.7,29,17.5z"/>
		<path d="M19.4,35c0.2,0,1.3,0,1.7-0.2c0.4-0.2,1.3-0.5,1.9-0.5c0.6-0.1,3.2-0.4,3.2-0.4s-2.6,0.1-1.6-0.2c1-0.2,2.7-0.9,2.7-0.9
			s-1.1,0.2-2.2,0.3c-1.1,0.1-3.5,1.2-4,1.4c-0.5,0.2-0.9,0.3-1.9,0.3C18.8,34.7,19.2,35,19.4,35z"/>
		<path d="M25.9,20c0.6,0,1.2,0.5,1.6,0.3c0.8-0.3,2.1-0.4,2.5-0.3c0.5,0.1,1.2-0.2,1.5-0.1c0.7,0.3,2.9,0.4,2.9,0.4
			s-1.3-0.4-2.1-0.5c-0.8-0.1-2.4-0.2-2.9-0.2s-1.8,0.2-2.2,0.2c-0.4,0-0.9-0.2-0.9-0.2s0.7-0.7,1.3-1c0.6-0.3,0.7-0.2,1.7-0.2
			c1.1,0,2.2-0.7,1.8-0.6c-0.4,0.1-1.8,0.3-2.1,0.2c-0.3-0.1-1,0.1-1.4,0.3c-0.4,0.1-1.2,0.8-1.7,1.3c-0.5,0.1-1.4,0.3-2,0.4
			c-0.7,0.1,0.1-0.4,0.9-0.7c0.8-0.3,1.2-0.7,1.4-1.1c-0.5,0.1-1.3,0.6-1.4,0.9c-1.7,0.6-1.8,1.3-1.8,1.3s-1.1,0.5-1.1,0.4
			c0,0-0.4,0.7-0.4,0.7s1-0.4,1.7-0.7C24.5,20.8,25.3,20,25.9,20z"/>
		<path d="M22.5,22.1c1.4-1,3.7-1.1,3.7-1.1s0-0.2,0-0.3c-2,0.3-3.8,1.3-3.8,1.3S22.5,22,22.5,22.1z"/>
		<path d="M24,22.7c0.5-0.1,1.1-0.1,1.3-0.5c-0.7,0.1-2.2,0.5-2.9,0.8c-0.7,0.3-1.5,0.4-1.5,0.4l0,0.3l0.6,0.1l-0.6,0.4l-0.1,0.4
			c0,0,0.6-0.5,1.2-0.7C22.6,23.5,23.5,22.8,24,22.7z"/>
		<path d="M20,30.5c0.3,0.1,0.8-0.3,1.3-0.7c0.8,0,1.2-0.4,1.9-0.6c0.7-0.2,1.2-0.3,2-0.6c0.7-0.3,0.4-0.3-0.4-0.3
			c-0.8,0.1-2.2,0.5-2.8,0.8c-0.7,0.3-1.1,0.4-1.6,0.4c-0.5,0-1.5,0.7-1.7,0.9c-0.2,0.2,0,0.2,0.2,0.1c0.2-0.1,1.2-0.5,1.2-0.5
			S19.9,30.2,20,30.5z"/>
		<path d="M23.5,32.1c-2.8,0.8-3.7,2.2-3.6,2.2c0.4,0,1.6-1.3,2.8-1.7c1.2-0.4,0.7,0.1,2.4-0.6C26.8,31.4,24.5,31.8,23.5,32.1z"/>
		<path d="M23.4,27.9c0.2-0.1,0.3-0.4-0.3-0.2c-0.5,0.2-0.9,0.2-0.2-0.3c0.7-0.5,2.4-1.2,2.8-1.3c0.4-0.1,1.4-0.4-0.5-0.4
			c-0.7,0-1.4,0.2-2.1,0.5c-0.6,0.3-2.6,1.2-1.3,0.4c1.3-0.9,1.8-1.4,2.2-1.5c0.4-0.2,2.6-0.2,1.5-0.6c-0.4,0.1-0.3,0.1-1.8,0.4
			c-0.5,0.3-1.5,0.5-0.8,0.1c0.6-0.4,1.8-0.8,2-1c0.3-0.1,0.3-0.4-0.2-0.1c-0.5,0.3-1.8,0.8-1.2,0.5c0.6-0.4,0.6-0.6,0.2-0.4
			c-0.5,0.2-1.6,0.4-0.9,0.1c0.7-0.3,0.9-0.6,0.6-0.4c-0.4,0.2-1.3,0.7-1.9,0.9c-0.1,0,0.1,0.1-0.1,0.2c-0.6,0.4,0.6-0.1,0.1,0.4
			c-0.3,0.3-0.7,0.6-0.9,0.9c-0.2,0.3,0.3-0.1,0.7-0.1c0.4,0-0.5,0.7-0.1,0.5c0.5-0.3,1.3-0.7,1.5-0.8c0.2-0.1,0.7-0.3,0.1,0.2
			c-0.6,0.4-1.5,1-1.9,1.2c-0.4,0.2-0.6,0.8,0.3,0.5c0.9-0.4,1.9-1,2.4-1c0.5-0.1,0.8-0.1,0.1,0.3c-0.7,0.4-1.5,0.8-1.9,1
			c-0.5,0.2-0.7,0.6-1.2,0.8c-0.5,0.3-1.1,1-1.1,1s0.9-0.8,2.6-1.1C23,28.1,23.2,27.9,23.4,27.9z"/>
		<path d="M54.1,2.4C25.7,2.4,2.7,17.7,2.7,36.6c0,18.9,23,34.2,51.4,34.2c28.4,0,51.4-15.3,51.4-34.2C105.4,17.7,82.4,2.4,54.1,2.4
			z M93.8,41.3c-3.7,0-4-1.4-4-1.4c-1.7-2-3.6-5.8-3.2-8.1c0.1-0.7,0-1-0.8-0.4c-0.7,0.7-1.2,1.5-1.3,3.1c-0.9-0.3-1-0.1-0.6,0.5
			c0.4,0.7,0.9,1.5,0.8,2.8c0,0.7-0.2,1-0.2,1s-0.6-0.3-0.9-0.2c-0.3,0.2,0.1-0.7-0.4-0.2c-0.5,0.5-0.6,0.1-0.3-0.3
			c0.3-0.5-0.3,0.1-1.2,0.8c-0.6,0.5-0.5,0,0.4-0.9c0.3-0.3-0.1-0.2-0.9,0.4c-0.3,0.2-0.5-0.2-0.2-0.5c0.3-0.3,0-0.3-0.2-0.1
			c-0.2,0.2-0.2,0.4-0.8,0.9c-0.6,0.4-0.2-0.4,0.1-0.8c0.3-0.3-0.1-0.4-0.2-0.2c-0.2,0.2-1.6,1.4-1.9,1.8c-0.3,0.3-0.7,0.5-0.5,0.2
			c0.3-0.5-0.4-0.3-0.8,0c-0.4,0.3-0.3-0.1,0-0.3c0.2-0.2,0.4-0.6,0.6-1.1c0.2-0.5-0.2-0.2-0.4,0.1c-0.2,0.3-0.4,0-0.8,0.7
			c-0.2,0.3-0.2,0-0.6,0.5c-0.4,0.5-1.5,0.9-1.7,1.5c-0.2,0.4,0.1,0.2,0.3-0.1c0.3-0.6,0.3,0.4,1.2-0.8c0.4-0.6,0.9,0,0.3,0.7
			c-0.4,0.4,0.2,0.4,1.2-0.7c0.4-0.5,0.6-0.1,0.3,0.3c-0.3,0.4-1.2,1.5-1.6,1.8c-0.3,0.4-0.7,0.3-0.4-0.2c0.3-0.4,0-0.5-0.3-0.1
			c-0.3,0.3-0.6,0.1-0.5-0.2c0.1-0.3-0.2-0.3-0.2-0.1c-0.5,0.8-1.8,1.6-2.1,1.8c-0.4,0.2-0.1,0.4,0.2,0.1c0.3-0.3,0.7-0.4,0.8-0.3
			c0.1,0.1-0.6,0.9-0.9,1.2c-0.3,0.3-0.2,0.6,0.2,0c0.2-0.3,0.8-0.6,0.3,0c-0.3,0.3-0.1,0.4,0.4-0.3c0.2-0.2,0.3-0.1,0.1,0.1
			c-0.2,0.2-0.3,0.7,0.3-0.1c0.2-0.3,1.1-1,1.4-1.3c0.3-0.3,0.3,0,0.2,0.1c-0.1,0.1-0.3,0.4-0.6,0.6c-0.3,0.3-0.2,0.3,0,0.3
			c0.2,0,0.5-0.2,0.3,0c-0.2,0.3-0.5,0.5-0.8,0.8c-0.3,0.3,0.1,0.4,0.8-0.2c0.2-0.2,0.4,0.1,0.6-0.1c0.5-0.7,0.7-0.2,0.5-0.1
			c-0.7,0.6-0.5,0.8-0.4,0.7c0.4-0.4,0.4-0.2,0.4-0.2L75,45.5l0,0.2l2.7-2.4c0,0-0.1,0-0.2,0c-0.6,0.8-0.9,0.2-0.8-0.1
			c-0.1,0.2-0.3,0.3-0.6,0.3c-1,0-0.1-0.8,0.7-1.1c2.6,1,5.6,0.7,6.1,0.6c0.2,0.4,0.9,0.7,2.3,0.7c0.3,0,0.5-0.1,0.8-0.3
			c0.4,0.4,2.8,0.7,3.8,0.7c0.9,0,2.6-0.4,2.6-1.6c0,0,0.6-0.4,0.6,0.9c0,0.5-0.9,5.3-8.1,6.5c-2.4,0.3-2.4,0.6-3.1,1.1
			c-0.3-0.2-0.5-0.5-0.5-0.5s-5.1,3.1-7.7,3.8c-1.1-0.8-1.7-1-1.7-1s-1.1,0.7-2.2,1.1c0.6-1.5-1.2-0.2-2.7,0.9
			c-1.5,1.1-1.9,0.6-2.4,1.1c0.3-0.9-0.8,0.1-1.4-0.1c0.4-0.6,0.6-1.5-0.5-0.4c-1.7,1.8-2.3,1.3-2,0.8c0.3-0.5,0.4-1.1-0.4-0.4
			c-0.8,0.7-4,2.8-4.6,4c-0.6,1.2-2.9,3.3-3.4,3.7c-0.4,0.4-0.3,1.1-1.1,1.6c-0.7,0.5-1.7,0.1-2.7,1.3c-0.4,0.4-1.4,0.6-2.2,0.3
			c-2.1-0.6-3.7,0-5.1,0.1c-1.4,0.1-2.1-0.1-3-0.2c-0.3-0.6-2.3-1.2-3-1.9c-0.7-0.8-1.7-1-3.3-0.7c0-0.6,0.6-2.6,1.9-2.1
			c-0.4-0.7,0.1-1.3,1.6-1.8c-2.1,0.3-3.1,0.4-4.5-0.3c0.4-1.2-1.8-1.1-2.6-2.3c-1.3-0.3-2.7-0.3-2.8-1c1.7-0.9,2.3-1.6,2.6-2.3
			c-1-0.5-1.4-0.9-2.9-0.6c-0.1-1.2,0.2-1.4,0.8-1.8c-0.9-0.3-1.4,0-0.9-1.7c-1.1-0.7-2.7,0.2-4-0.4c0.7-0.4,0.1-0.6,0.9-0.8
			c-0.5-0.7-0.3-1-1.5-0.5c-0.9-0.9-1.3-2.4-0.8-4.1c0.1-0.8-1.3-0.6-1.3-2.4c-0.8-0.3-1.2-1-0.8-2c-0.6-0.6-1-0.8-0.6-1.7
			c-1-0.8-1.3-1.4-1.7-2.7c2.6-0.6,4.3-1.3,4.3-2.6c0-1.3-1.5-1.3-1.7-2.8c1-0.5,2.5-2.1,0.7-3.7c1.2-0.8,2.9-2.8,1.6-4.1
			c1.1-1.5,2.3-2.6,1.2-3.6c1.9-0.7,4.6-7.2,8.8-6.2c0.9,0,1.6-0.3,2.4-0.8c0.8-0.4,1.4,0.7,3-0.5c1.4,0.4,1.9,0.7,2.4,0
			c1,0,2.2-0.7,1.9-1.9c0.5,0.2,0.6-0.3,0.1-1.8C41,7.8,41,7.6,40.6,6.5c1.1,0.3,1.5,3.2,3.3,4c-0.7-1.1-0.9-2-0.9-2l1.4,1.6
			l-0.2-1.5c0,0,0.7,1.4,1.9,1.7c-0.4-0.6-0.6-1.2-0.6-1.2s2,1.6,3,1.6c0.4,0,0.8-0.5,0.1-1c1.6,0.5,4.2,0.5,5.5,1.7
			c0-0.6,0.3-1,0.3-1l0.6,0.2l0-0.6l0.5,0.1c0,0-0.5-1-1.5-1.6c0.5-0.1,0.7,0.1,0.7,0.1S54.3,7.5,53.6,7c1.1,0.3,1.8,0.9,2.5,0.9
			c0-0.6,0.1-1,1.4,0.2c0.1-0.6,0.5-0.2,1.1,0.6c0-0.6,1.9,1.4,1.8,0.4c-0.2-0.6,5.2,5.9,4.9,3.6c-0.3-2.2,1.2,3,2.6,1.5
			c0.8,0.1,0.3,1,1,1.4c0.4-0.4,0.8,0.6,1.1,1.6c0.3,0.2,0.6,0.9,0.5,1.4c0.2,0,0.5,0.1,0.5,0.1s0-0.5-0.1-1.2
			c0.5,0.3,0.9,2.5,1.4,3.2c0.1-0.9,0.1-1.4,0.1-1.8c0.5,0.8,0.6,1.3,0.9,2.6c0.2-1.9,0.6-2.4,0.6-2.4l0.3,2.4l0.4-0.3l0.1,1.2
			l0.6-0.6c0,0,0.2,1.3-0.1,2.2c0.5-0.7,0.6-1.2,0.6-1.2s0.4,0.6,0.1,1.1c0.4-0.3,0.6-0.6,0.6-0.6s0.2,0.4-0.1,1
			c0.6-0.1,0.7-0.3,0.7-0.3s0.2,1.3-0.2,1.8c0.1,0.3-1.1,2.6,4,2.6c3.7,0,3.8,0.9,4.9,0.9c1.8,0,6.2,3.1,8.6,3.1c0.7,0,1-1,2.5-1
			c1.4,0,2,1,2,4.4C99.1,37.7,98,41.3,93.8,41.3z M77.2,40.7c-0.4,0,0.3-1.1,0.7-0.7c0.2-0.3,0.6-0.7,0.8-0.8c0.1,0,0.7-0.2,0,0.4
			C78.1,40.2,77.6,40.7,77.2,40.7z M77.4,41.5c0,0-0.3,0.5-0.6,0.4c-0.1,0.3-0.4,0.4-0.5,0.2c0,0.1-0.7,0.2-0.4-0.2
			C76.5,41.2,77.4,41.5,77.4,41.5z M78.2,40.7c1.2-0.2,3.4-1.9,4.6-1.8c0.4,0,1.4,0.1,1.7,0.1c-0.1,0.3-0.1,0.5-0.3,0.7
			c-0.4-0.1-1.7-0.4-2.7,0.2c-1.2,0.8-2.3,1.5-3.6,1.5C77.4,41.4,77.5,40.8,78.2,40.7z M84.9,42.6l0.9-0.7c0,0,0.1-0.2,0.1-0.6
			c0.1-0.1,0.8-0.7,0.8-0.7l0,0.5c-0.1,0.1-0.2,0.4-0.3,0.7c-0.1,0.1-0.2,0.2-0.3,0.2c-0.1,0.2-0.8,1.1-0.8,1.1c0,0-0.3,0-0.3,0
			l-0.1-0.3l-0.5,0.1L84.9,42.6z"/>
	</g>
	<g>
		<path class="st1" d="M71.6,27.4c-0.3,0-0.1,0.3,0,0.4c0.4,0.4,0,1.2-0.1,1.2c0.4-0.1,0.7-0.2,1-0.4C72.5,27.8,72.1,27.6,71.6,27.4
			z"/>
		<path class="st1" d="M70.6,27.1c-1.1,0-2.5,1.4-2.8,1.6c0,0.2,0.7,0.7,1.4,0.7c0.7-0.1,0.9-0.1,1.5-0.2c-0.3,0-0.6-0.3-0.6-0.5
			c-0.2-0.5-0.2-0.8,0.1-1.1c0.3-0.2,0.5-0.2,0.8-0.1c0.1-0.2,0.1-0.3,0-0.4C70.9,27.1,70.7,27.1,70.6,27.1z"/>
		<path class="st1" d="M70.6,27.8c-0.2,0-0.3,0.1-0.3,0.3c0,0.2,0.1,0.4,0.4,0.4c0.3,0,0.4-0.2,0.4-0.3S70.9,27.8,70.6,27.8z"/>
		<path class="st1" d="M94.6,37c0.6,0,0.8-2.7,1.1-3.3C95,34.4,93.9,37,94.6,37z"/>
		<path class="st1" d="M87.2,39.8c0,0.2,0,0.4,0,0.6c0.2,0.1,0.4,0.1,0.6,0.1c0.5,0,1.2-0.2,1.4-0.5c-1.7-2-3.6-5.8-3.1-8.3
			c-0.6,0.6-1.1,1.3-1.1,3C86.8,35.7,87.2,37.7,87.2,39.8z"/>
		<path class="st1" d="M90.6,41.8C90.5,41.8,90.6,41.8,90.6,41.8c0.5,0.2,0.9,0.5,1,0.7c0,0.1,0.1,0.1,0.1,0.2
			c0,0.5-0.3,0.7-0.8,0.9l0,0c-0.1,0-0.2,0.1-0.4,0.1c0,0-0.2,0-0.3,0.2c-0.2-0.1-0.9-0.1-1,0c-0.1-0.1-1.6-0.2-1.6-0.1
			c0.7,0.2,1.8,0.2,2.6,0.2c1.2,0,2-0.5,2-1.2C92.2,42.2,91.2,41.9,90.6,41.8z"/>
		<path class="st1" d="M82,42.4c0-0.2-0.6-0.1-0.7,0.1c-0.1-0.2-0.6-0.2-0.8,0.1c-0.1-0.3-0.7-0.2-0.9,0c-0.1-0.2-0.9-0.4-1-0.1
			c-0.1-0.3-0.8-0.5-1-0.3c-0.1-0.2-0.6-0.2-0.6,0c0,0.2,0,0.2,0.4,0.3c0.6,0.2,2.2,0.4,2.7,0.4c0.5,0,1.1,0,1.2-0.1
			c0.1,0.1,0.5,0.1,0.7-0.1c0.2,0.1,0.4,0,0.5,0c0,0,0,0,0-0.2C82.5,42.3,82.1,42.2,82,42.4z"/>
		<path class="st1" d="M88.7,40.8c-0.3,0.1-0.6,0.1-0.9,0.1c-0.3,0-0.5-0.1-0.7-0.1c0,0.1,0,0.3-0.1,0.4c0.2,0,1.4,0.1,1.8,0.2
			C88.8,41.3,88.8,41.2,88.7,40.8z"/>
		<path class="st1" d="M84.2,34.8c0.8,1.3,1.7,3.4-0.5,6.7c-0.6,0.8-1.4,2,1.4,2c0.5,0,1.2-0.7,1.5-2.3c-0.1,0.1-0.2,0.4-0.3,0.6
			c-0.1,0.1-0.2,0.2-0.3,0.2c-0.1,0.2-0.8,1.1-0.8,1.1c0,0-0.3,0-0.3,0l-0.1-0.3l-0.5,0.1l0.6-0.3l0.9-0.7c0,0,0.1-0.2,0.1-0.6
			c0.1-0.1,0.8-0.7,0.8-0.7c0-0.3,0-0.6,0-0.9C86.8,37.5,86.2,35.5,84.2,34.8z"/>
	</g>
	<path class="st2" d="M82.8,42.2c-0.1-0.1-0.2-0.2-0.2-0.2c-0.1,0-0.2-0.1-0.3-0.1c-0.1,0-0.2,0-0.3,0c-0.1,0-0.3,0-0.4,0
		c-0.1,0-0.2,0-0.3,0.1c-0.2-0.1-0.5,0-0.8,0.1c-0.3-0.1-0.7-0.1-0.9,0.1c-0.3-0.1-0.7-0.2-0.9-0.1c-0.2-0.1-0.4-0.2-0.6-0.2
		c1.4-0.3,3.6-1.1,5.3-0.6C83.2,41.5,82.9,41.9,82.8,42.2z M87.1,41.5c1.2,0.1,4.4,0.4,4.4,1.1c0,1.4-2.7,0.9-5,0.6
		C86.7,42.8,86.9,42.2,87.1,41.5z"/>
	<path class="st3" d="M94.3,68.1c0-1.3,1-2.3,2.2-2.3c1.2,0,2.2,1,2.2,2.3c0,1.3-1,2.3-2.2,2.3C95.3,70.4,94.3,69.4,94.3,68.1z
		 M96.5,70.9c1.5,0,2.8-1.2,2.8-2.8c0-1.6-1.3-2.8-2.8-2.8c-1.5,0-2.8,1.2-2.8,2.8C93.8,69.7,95,70.9,96.5,70.9z M96,68.3h0.6
		l0.8,1.4h0.5L97,68.3c0.5-0.1,0.8-0.3,0.8-0.9c0-0.6-0.4-0.9-1.1-0.9h-1.2v3.2H96V68.3z M96,67.9v-1h0.7c0.3,0,0.7,0.1,0.7,0.5
		c0,0.5-0.4,0.5-0.8,0.5H96z"/>
</g>
</svg>
