<?xml version="1.0" encoding="utf-8"?>
<!-- Generator: Adobe Illustrator 16.0.0, SVG Export Plug-In . SVG Version: 6.00 Build 0)  -->
<!DOCTYPE svg PUBLIC "-//W3C//DTD SVG 1.1//EN" "http://www.w3.org/Graphics/SVG/1.1/DTD/svg11.dtd">
<svg version="1.1" id="Layer_1" xmlns:sketch="http://www.bohemiancoding.com/sketch/ns"
	 xmlns="http://www.w3.org/2000/svg" xmlns:xlink="http://www.w3.org/1999/xlink" x="0px" y="0px" width="69.554px"
	 height="82.75px" viewBox="11.433 10.066 69.554 82.75" enable-background="new 11.433 10.066 69.554 82.75" xml:space="preserve">
<title>logo</title>
<desc>Created with Sketch.</desc>
<g id="Page-2" sketch:type="MSPage">
	<g id="logo" sketch:type="MSArtboardGroup">
		<g id="Imported-Layers" transform="translate(10.000000, 10.000000)" sketch:type="MSLayerGroup">
			<path id="Fill-1" sketch:type="MSShapeGroup" fill="#FFFFFF" d="M31.175,18.017c0,0-0.915-1.86-3.922-1.521
				c0,0,7.02-6.461,14.187-4.919c1.637,0.353,1.504,3.417,1.504,3.417S36.209,14.534,31.175,18.017"/>
			<path id="Fill-2" sketch:type="MSShapeGroup" fill="#FFFFFF" d="M63.93,31.949c0-0.581-0.469-1.051-1.047-1.051
				c-0.086,0-0.168,0.013-0.248,0.033c-1.32-4.651-5.678-14.764-18.656-15.112c-16.874-0.453-22.734,12.66-22.933,17.011
				c-0.097,2.133-0.2,7.801-3.205,8.959s-6.559,4.228-7.561,9.11c0,0,3.004-0.906,4.656-3.322c0,0,0.751,2.164,3.155,3.826
				c2.403,1.66,2.203,4.025,2.203,4.025s2.604-2.013,0.851-11.022s8.963-9.009,8.963-9.009s0.05-1.711,0.901-2.365
				c0,0-1.102,2.366,0.351,3.825s0.651,2.315,0.651,2.315s5.408-1.963,5.558-8.506c0,0,0.451,1.258,0.25,2.768
				c0,0,4.206-1.107,8.362,0.403c0,0-4.758-3.171,0.852-10.519c0,0-6.359,9.865,3.354,11.274c7.81,1.133,9.72,0.298,10.68-0.308
				c0.193,0.182,0.452,0.294,0.738,0.294c0.596,0,1.078-0.485,1.078-1.084c0-0.183-0.045-0.354-0.125-0.505
				C62.8,32.993,62.84,33,62.883,33C63.461,33,63.93,32.53,63.93,31.949L63.93,31.949z M53.926,24.786
				c0,0.653-0.526,1.183-1.176,1.183c-0.65,0-1.178-0.53-1.178-1.183s0.527-1.183,1.178-1.183
				C53.399,23.603,53.926,24.132,53.926,24.786L53.926,24.786z"/>
			<path id="Fill-3" sketch:type="MSShapeGroup" fill="#FFFFFF" d="M65.184,52.906c3.369-5.465,5.146-11.743,5.146-18.213
				c0-19.093-15.454-34.627-34.449-34.627C16.886,0.066,1.433,15.6,1.433,34.693c0,8.429,2.991,16.422,8.458,22.726
				c-0.245-0.065-2.774-1.087-2.774-1.087s1.001,1.258,2.878,2.216c0.832,0.425,2.707,1.173,3.961,1.579
				c1.253,0.406,2.724,0.727,4.354,0.873c1.628,0.141,3.415,0.122,5.274-0.117c1.859-0.234,3.791-0.676,5.72-1.307
				c1.932-0.627,3.856-1.449,5.733-2.412c0.938-0.486,1.859-1,2.775-1.555l0.694-0.426c0.226-0.14,0.431-0.275,0.647-0.414
				l0.636-0.41c0.199-0.125,0.395-0.256,0.595-0.377c1.593-0.981,3.231-1.845,4.892-2.481c1.66-0.642,3.336-1.079,4.984-1.272
				c1.646-0.195,3.265-0.151,4.798,0.1c1.531,0.252,2.98,0.688,4.289,1.236c1.312,0.539,2.487,1.178,3.507,1.809
				c0.07,0.043,0.139,0.086,0.207,0.13c0,0,0.473,0.285,0.812,0.53c0.588,0.398,1.111,0.783,1.565,1.133
				c0.699,0.541,1.236,0.998,1.599,1.318c0.363,0.32,0.551,0.502,0.551,0.502s-0.087-0.247-0.297-0.693
				c-0.209-0.445-0.541-1.092-1.041-1.871C65.959,53.959,65.604,53.448,65.184,52.906L65.184,52.906z M68.368,34.693
				c0,5.893-1.565,11.617-4.532,16.643c-0.807-0.849-1.775-1.725-2.936-2.551c-1.348-0.952-2.957-1.844-4.811-2.473
				c-1.849-0.632-3.938-0.989-6.098-0.969c-2.16,0.015-4.375,0.407-6.488,1.104c-2.119,0.69-4.128,1.687-6,2.837
				c-0.235,0.144-0.461,0.297-0.692,0.444l-0.644,0.422l-0.631,0.417l-0.595,0.385c-0.81,0.511-1.63,1.022-2.45,1.497
				c-1.644,0.948-3.29,1.818-4.924,2.549c-1.632,0.734-3.247,1.344-4.811,1.812c-1.564,0.467-3.076,0.804-4.496,0.993
				c-1.42,0.2-2.746,0.257-3.93,0.226c-0.506-0.012-0.68-0.017-1.13-0.06c-0.282-0.089-0.423-0.319-0.54-0.438
				c-5.976-6.138-9.266-14.249-9.266-22.838c0-18.006,14.573-32.655,32.487-32.655C53.795,2.038,68.368,16.688,68.368,34.693
				L68.368,34.693z"/>
			<path id="Fill-4" sketch:type="MSShapeGroup" fill="#FFFFFF" d="M44.747,62.967c0.075-0.066,0.155-0.139,0.239-0.213
				c0.087-0.068,0.178-0.141,0.273-0.216c0.189-0.151,0.4-0.308,0.625-0.479c0.113-0.085,0.23-0.173,0.353-0.259
				c0.126-0.082,0.254-0.166,0.386-0.252c0.266-0.173,0.55-0.346,0.846-0.533c0.609-0.33,1.273-0.701,2.015-1.009
				c0.185-0.08,0.372-0.161,0.561-0.243c0.194-0.07,0.39-0.143,0.588-0.215c0.397-0.145,0.806-0.289,1.231-0.4
				c0.422-0.123,0.854-0.244,1.299-0.332c0.223-0.046,0.446-0.094,0.672-0.141c0.225-0.042,0.453-0.071,0.683-0.107
				c0.229-0.035,0.46-0.068,0.691-0.098c0.232-0.021,0.466-0.041,0.7-0.062c0.467-0.051,0.938-0.055,1.408-0.069
				c0.472-0.014,0.942,0.013,1.41,0.024c0.234,0.014,0.468,0.034,0.699,0.054c0.232,0.021,0.465,0.033,0.693,0.068
				c0.459,0.06,0.914,0.118,1.357,0.207c0.223,0.044,0.443,0.081,0.661,0.131c0.217,0.052,0.433,0.103,0.646,0.153
				c0.214,0.047,0.423,0.11,0.629,0.17c0.207,0.059,0.412,0.117,0.613,0.182c0.398,0.135,0.791,0.258,1.162,0.411
				c0.748,0.281,1.433,0.606,2.052,0.922c1.233,0.646,2.185,1.312,2.81,1.825c0.63,0.51,0.938,0.862,0.938,0.862
				s-0.444-0.133-1.205-0.337c-0.379-0.102-0.84-0.22-1.364-0.348c-0.524-0.129-1.114-0.262-1.755-0.398
				c-0.642-0.13-1.33-0.273-2.062-0.389c-0.363-0.066-0.74-0.113-1.121-0.176c-0.384-0.047-0.771-0.107-1.169-0.148
				c-0.397-0.043-0.798-0.092-1.206-0.119c-0.406-0.044-0.819-0.061-1.233-0.089c-0.415-0.026-0.833-0.029-1.252-0.05
				c-0.21-0.001-0.419-0.002-0.63-0.002c-0.21-0.004-0.42-0.008-0.63,0.002c-0.42,0.012-0.841,0.013-1.259,0.043
				c-0.209,0.01-0.418,0.021-0.625,0.031c-0.209,0.018-0.415,0.036-0.621,0.055c-0.207,0.018-0.414,0.029-0.617,0.053
				c-0.205,0.024-0.408,0.049-0.609,0.072c-0.406,0.038-0.804,0.105-1.197,0.163c-0.195,0.032-0.393,0.052-0.585,0.089
				c-0.192,0.036-0.384,0.071-0.571,0.106c-0.191,0.034-0.379,0.067-0.564,0.1c-0.184,0.04-0.366,0.08-0.546,0.119
				c-0.727,0.139-1.401,0.328-2.042,0.474c-0.314,0.087-0.615,0.176-0.907,0.252c-0.146,0.037-0.289,0.074-0.428,0.111
				c-0.136,0.041-0.269,0.082-0.397,0.121c-0.26,0.076-0.502,0.153-0.73,0.215c-0.115,0.032-0.225,0.063-0.329,0.093
				c-0.103,0.033-0.202,0.065-0.295,0.095c-0.75,0.242-1.206,0.355-1.206,0.355S44.145,63.508,44.747,62.967"/>
			<path id="Fill-5" sketch:type="MSShapeGroup" fill="#FFFFFF" d="M10.542,74.757h4.255v0.86h-3.235v2.639h2.989v0.849h-2.989
				v3.595h-1.02V74.757"/>
			<path id="Fill-6" sketch:type="MSShapeGroup" fill="#FFFFFF" d="M16.25,74.757h1.02v7.942h-1.02V74.757z"/>
			<path id="Fill-7" sketch:type="MSShapeGroup" fill="#FFFFFF" d="M18.911,81.449c0.458,0.283,1.125,0.519,1.829,0.519
				c1.043,0,1.653-0.554,1.653-1.354c0-0.742-0.422-1.167-1.489-1.579c-1.29-0.46-2.087-1.132-2.087-2.251
				c0-1.237,1.02-2.156,2.556-2.156c0.809,0,1.395,0.188,1.747,0.389l-0.281,0.837c-0.258-0.142-0.785-0.378-1.5-0.378
				c-1.079,0-1.489,0.648-1.489,1.191c0,0.742,0.48,1.107,1.571,1.531c1.336,0.519,2.016,1.166,2.016,2.333
				c0,1.226-0.902,2.286-2.766,2.286c-0.762,0-1.594-0.225-2.017-0.507L18.911,81.449"/>
			<path id="Fill-8" sketch:type="MSShapeGroup" fill="#FFFFFF" d="M25.851,74.757v3.322h3.822v-3.322h1.032v7.942h-1.032v-3.725
				h-3.822v3.725h-1.02v-7.942H25.851"/>
			<path id="Fill-9" sketch:type="MSShapeGroup" fill="#FFFFFF" d="M32.475,74.851c0.493-0.083,1.137-0.153,1.958-0.153
				c1.008,0,1.747,0.236,2.215,0.66c0.434,0.377,0.692,0.955,0.692,1.662c0,0.719-0.211,1.283-0.61,1.696
				c-0.539,0.577-1.418,0.872-2.415,0.872c-0.305,0-0.586-0.012-0.821-0.07v3.182h-1.02V74.851L32.475,74.851z M33.495,78.681
				c0.223,0.059,0.504,0.082,0.844,0.082c1.23,0,1.981-0.601,1.981-1.696c0-1.049-0.738-1.556-1.864-1.556
				c-0.446,0-0.786,0.035-0.961,0.083V78.681L33.495,78.681z"/>
			<path id="Fill-10" sketch:type="MSShapeGroup" fill="#FFFFFF" d="M38.711,74.757h1.02v7.081h3.376v0.861h-4.396V74.757"/>
			<path id="Fill-11" sketch:type="MSShapeGroup" fill="#FFFFFF" d="M45.522,80.201l-0.821,2.498h-1.055l2.685-7.942h1.231
				l2.695,7.942h-1.09l-0.844-2.498H45.522L45.522,80.201z M48.113,79.398l-0.773-2.285c-0.176-0.519-0.294-0.99-0.41-1.449h-0.024
				c-0.116,0.471-0.246,0.954-0.398,1.438l-0.773,2.297H48.113L48.113,79.398z"/>
			<path id="Fill-12" sketch:type="MSShapeGroup" fill="#FFFFFF" d="M56.764,82.439c-0.375,0.188-1.125,0.377-2.086,0.377
				c-2.228,0-3.904-1.414-3.904-4.018c0-2.486,1.677-4.172,4.127-4.172c0.984,0,1.605,0.213,1.875,0.354l-0.246,0.836
				c-0.387-0.188-0.938-0.329-1.594-0.329c-1.852,0-3.083,1.19-3.083,3.275c0,1.944,1.114,3.193,3.036,3.193
				c0.621,0,1.254-0.13,1.664-0.329L56.764,82.439"/>
			<path id="Fill-13" sketch:type="MSShapeGroup" fill="#FFFFFF" d="M62.133,78.975h-3.07v2.863h3.422v0.861h-4.442v-7.942h4.267
				v0.86h-3.246v2.51h3.07V78.975"/>
			<path id="Fill-14" sketch:type="MSShapeGroup" fill="#FFFFFF" d="M0.135,55.422c0.655,0.389,4.072,3.182,5.704,3.858
				c0.331,0.169,0.663,0.333,0.998,0.489c0.332,0.161,0.665,0.317,0.999,0.469c0.666,0.309,1.338,0.59,2.006,0.867
				c0.671,0.27,1.342,0.528,2.017,0.764c0.675,0.232,1.347,0.461,2.025,0.65c0.674,0.204,1.353,0.379,2.03,0.533
				c0.676,0.16,1.357,0.281,2.033,0.395c0.677,0.112,1.354,0.195,2.029,0.265c0.675,0.07,1.35,0.116,2.024,0.14
				c0.674,0.027,1.349,0.033,2.024,0.012c0.338-0.005,0.674-0.031,1.013-0.046c0.337-0.03,0.676-0.048,1.013-0.089
				c0.677-0.068,1.351-0.178,2.023-0.312c0.675-0.126,1.339-0.312,2.004-0.508c0.66-0.212,1.32-0.438,1.962-0.718
				c2.525-0.92,8.516-4.664,10.52-5.556l0.917-0.395l0.926-0.376c0.621-0.242,1.244-0.478,1.877-0.692
				c0.63-0.22,1.27-0.419,1.914-0.602c0.646-0.176,1.295-0.345,1.955-0.479c0.658-0.137,1.319-0.26,1.988-0.345
				c1.338-0.174,2.697-0.245,4.055-0.124c1.352,0.119,2.705,0.416,3.951,0.981c0.621,0.285,1.213,0.632,1.75,1.053
				c0.269,0.21,0.525,0.436,0.76,0.683c0.238,0.252,0.449,0.502,0.643,0.82c0,0-2.25-1.338-3.516-1.593
				c-1.412-0.315-2.406-0.474-3.631-0.427c-1.227,0.05-2.449,0.248-3.65,0.547c-0.6,0.147-1.195,0.33-1.785,0.524
				c-0.59,0.192-1.172,0.419-1.752,0.649c-0.576,0.239-1.152,0.478-1.719,0.745c-0.568,0.261-1.131,0.541-1.688,0.827l-0.831,0.441
				l-0.825,0.459c-0.546,0.312-1.088,0.633-1.626,0.963l-0.804,0.498l-0.8,0.506c-0.53,0.344-1.058,0.69-1.581,1.047
				c-0.522,0.357-2.178,1.48-2.691,1.853c-0.517,0.366-1.899,1.271-2.623,1.644c-0.18,0.096-0.359,0.193-0.541,0.285l-0.551,0.269
				c-0.364,0.187-0.743,0.345-1.116,0.518c-0.381,0.153-0.756,0.323-1.145,0.462l-0.58,0.219l-0.588,0.2
				c-0.392,0.136-0.792,0.247-1.191,0.365c-0.402,0.104-0.805,0.214-1.213,0.3c-0.813,0.186-1.641,0.322-2.474,0.406
				c-0.832,0.092-1.671,0.125-2.507,0.111c-0.837-0.012-1.671-0.077-2.496-0.191c-0.825-0.117-1.643-0.269-2.443-0.478
				c-0.802-0.2-1.587-0.456-2.36-0.728c-0.772-0.276-1.522-0.602-2.259-0.941c-0.732-0.354-1.452-0.723-2.145-1.135
				c-0.695-0.407-1.371-0.84-2.022-1.305c-0.655-0.457-1.282-0.951-1.892-1.46c-0.302-0.259-0.602-0.518-0.894-0.784
				C2.341,59.439,0.135,55.422,0.135,55.422"/>
		</g>
	</g>
</g>
</svg>
